<?xml version="1.0" encoding="utf-8"?>
<!-- Generator: Adobe Illustrator 22.0.0, SVG Export Plug-In . SVG Version: 6.00 Build 0)  -->
<svg version="1.1" id="Layer_1" xmlns="http://www.w3.org/2000/svg" xmlns:xlink="http://www.w3.org/1999/xlink" x="0px" y="0px"
	 viewBox="0 0 1014.6 842" style="enable-background:new 0 0 1014.6 842;" xml:space="preserve">
<style type="text/css">
	.st0{opacity:0.17;fill:#8982BC;enable-background:new    ;}
	.st1{opacity:0.25;fill:#FFFFFF;enable-background:new    ;}
	.st2{fill:#E295D1;}
	.st3{fill:#C125A2;}
	.st4{fill:#FFFFFF;}
	.st5{fill:#FFD052;}
	.st6{fill:#F5F1EB;}
	.st7{font-family:'Helvetica';}
	.st8{font-size:37px;}
	.st9{opacity:0.5;}
	.st10{fill:#F19E36;}
	.st11{opacity:0.56;fill:url(#Path_500_1_);enable-background:new    ;}
	.st12{fill:#D9E7EA;}
	.st13{fill:#A0CFEF;}
	.st14{opacity:0.11;}
	.st15{fill:#282F56;}
	.st16{opacity:0.12;}
	.st17{fill:#F7D3A9;}
	.st18{fill:#DEE3FF;}
	.st19{fill:#343B73;}
	.st20{fill:#D8F6FF;}
	.st21{fill:#A0CED8;}
	.st22{fill:#CC4444;}
	.st23{fill:#222742;}
	.st24{opacity:0.14;fill:#343B73;enable-background:new    ;}
	.st25{opacity:0.35;fill:#282F56;enable-background:new    ;}
	.st26{fill:#FBC4B6;}
	.st27{fill:#F9F9F9;}
	.st28{fill:#1661A5;}
	.st29{fill:#5D148B;}
	.st30{fill:#9A6041;}
	.st31{fill:#FFB821;}
	.st32{fill:url(#SVGID_1_);}
	.st33{fill:#FFDC95;}
	.st34{fill:#AEB29D;}
	.st35{fill:#F7FCFF;}
	.st36{fill:#483E2B;}
	.st37{fill:url(#SVGID_2_);}
	.st38{fill:#B97A60;}
	.st39{fill:#522F2C;}
	.st40{fill:#FEFEFE;}
	.st41{fill:url(#SVGID_3_);}
	.st42{fill:#312F2D;}
	.st43{fill:url(#SVGID_4_);}
	.st44{fill:url(#SVGID_5_);}
	.st45{fill:#4B4644;}
	.st46{fill:#B47E6B;}
	.st47{fill:#5C4E3B;}
	.st48{fill:#3F7798;}
	.st49{fill:#8E9470;}
	.st50{fill:#BDBCA6;}
	.st51{fill:#DEDBDB;}
	.st52{fill:#EE798A;}
	.st53{fill:#C7B28A;}
	.st54{fill:#2E6799;}
	.st55{fill:#3E75A3;}
	.st56{fill:#E0DEDD;}
	.st57{fill:url(#SVGID_6_);}
	.st58{fill:#9B6044;}
	.st59{fill:#7A4A38;}
	.st60{fill:url(#SVGID_7_);}
	.st61{fill:url(#SVGID_8_);}
	.st62{fill:#AD7968;}
	.st63{fill:#40382A;}
	.st64{fill:#1C1C1C;}
	.st65{fill:url(#SVGID_9_);}
	.st66{fill:#8B5938;}
	.st67{fill:#754233;}
	.st68{fill:#636542;}
	.st69{fill:#7B7C5A;}
	.st70{fill:#B2B3B3;}
	.st71{fill:#8C593A;}
	.st72{fill:url(#SVGID_10_);}
	.st73{fill:#1B2025;}
	.st74{fill:url(#SVGID_11_);}
	.st75{fill:url(#SVGID_12_);}
	.st76{fill:url(#SVGID_13_);}
	.st77{fill:#C7C9CD;}
	.st78{fill:#8A94A0;}
	.st79{fill:#B8B9BA;}
	.st80{fill:#8D724A;}
	.st81{fill:#4D4569;}
	.st82{fill:#C8BDAC;}
	.st83{fill:url(#SVGID_14_);}
	.st84{fill:#DE4238;}
	.st85{fill:url(#SVGID_15_);}
	.st86{fill:url(#SVGID_16_);}
	.st87{fill:url(#SVGID_17_);}
	.st88{fill:url(#SVGID_18_);}
	.st89{fill:url(#SVGID_19_);}
	.st90{fill:#603D2F;}
	.st91{fill:url(#SVGID_20_);}
	.st92{fill:#7A4B27;}
	.st93{fill:#EA5847;}
	.st94{fill:url(#SVGID_21_);}
	.st95{fill:url(#SVGID_22_);}
	.st96{fill:url(#SVGID_23_);}
	.st97{fill:url(#SVGID_24_);}
	.st98{fill:#727271;}
	.st99{fill:#8B5937;}
	.st100{fill:#4E4437;}
</style>
<g id="Layer_1_1_">
	<ellipse id="Ellipse_20" class="st0" cx="239.5" cy="837.7" rx="46.4" ry="4.3"/>
	<path id="Path_650" class="st0" d="M196.1,766.4c0,2.4-27,4.3-60.3,4.3s-60.3-1.9-60.3-4.3c0-2.4,27-4.3,60.3-4.3
		S196.1,764,196.1,766.4z"/>
	<ellipse id="Ellipse_21" class="st0" cx="874.4" cy="767" rx="63.9" ry="4.3"/>
	<path id="Path_826" class="st1" d="M615.7,242.8h176.8c0,0-9.4-48.3-56.1-36.7c0,0-34.6-97.8-68.7,0c0,0-29-48.4-52-48.8
		C566.1,156.8,551.5,242.8,615.7,242.8L615.7,242.8z"/>
	<path id="Path_827" class="st1" d="M161.7,154.9H328c0,0-8.8-45.5-52.8-34.4c0,0-32.6-92-64.5,0c0,0-27.3-45.6-49-45.8
		C115.1,74.1,101.5,154.9,161.7,154.9z"/>
	<path id="Path_828" class="st1" d="M734.3,115.1h95c0,0-5.1-26-30.3-19.6c0,0-18.7-52.6-36.9,0c0,0-15.7-26-28.1-26.2
		C707.5,68.8,699.9,115.1,734.3,115.1L734.3,115.1z"/>
	<path id="Path_829" class="st1" d="M102.6,235h50.7c0,0-2.6-13.8-16.1-10.5c0,0-9.9-28.1-19.6,0c0,0-8.4-13.8-15-14
		C88.4,210.3,84.2,235,102.6,235z"/>
	<path id="Path_830" class="st1" d="M868.6,35h50.7c0,0-2.6-13.8-16.1-10.5c0,0-9.9-28.1-19.6,0c0,0-8.4-13.8-15-14
		C854.4,10.3,850.3,35,868.6,35L868.6,35z"/>
	<path id="Path_831" class="st1" d="M247.9,45.8h95c0,0-5.1-26-30.3-19.6c0,0-18.7-52.6-36.9,0c0,0-15.7-26-28.1-26.2
		C221.2-0.6,213.5,45.8,247.9,45.8z"/>
	<g id="Group_431" transform="translate(58.88 82.137)">
		<path id="Path_837" class="st2" d="M933.3,626.3c-11.4,8.6-29.7,0.7-40-8c-1.9-1.4-3.1-3.5-3.6-5.8c-2.2-11,15.2-13.8,15.7-23.8
			c0.2-4.3-3-7.9-5.4-11.6c-5.4-8.2-7.1-18.7-5.8-28.4c1.1-9.9,4.9-19.3,9.2-28.2c3.6-7.3,9.7-15.5,17.8-13.8
			c5.1,1.1,8.4,6.2,9.9,11.2c2.1,6.9,1.7,14.2,0.4,21.3c-0.6,3.2-1.5,6.4-0.6,9.4c2.1,7.9,13.1,9.5,17.2,16.6
			c4.1,7.3-0.7,15.9-5.2,23c-3.7,6-6.2,9.7-3.7,14.8c0.8,1.3,1.7,2.5,2.8,3.6C944,608.3,948.5,614.7,933.3,626.3z"/>
		<g id="Group_430" transform="translate(27.324 13.878)">
			<path id="Path_838" class="st2" d="M889.9,655.6c-0.2,0-0.4-33.5-0.4-74.6s0.2-74.6,0.4-74.6s0.4,33.5,0.4,74.6
				S890.1,655.6,889.9,655.6L889.9,655.6z"/>
		</g>
	</g>
	<path id="Path_839" class="st3" d="M965.2,700.2c-18.3,13.8-48.1,1.3-64.5-13.1c-2.9-2.5-5-5.8-5.8-9.5
		c-3.7-18,24.5-22.3,25.3-38.3c0.4-6.9-4.9-12.9-8.8-18.7c-9-13.3-11.4-30.1-9.5-46s7.9-31.1,14.8-45.5
		c5.6-11.8,15.9-25.3,28.6-22.3c8.2,1.9,13.5,9.9,15.9,18.1c3.4,11,2.8,23,0.6,34.4c-0.9,5.1-2.2,10.3-0.9,15.2
		c3.6,12.7,21.3,15.5,27.7,26.9c6.5,11.6-1.3,25.8-8.6,37c-6.2,9.5-9.9,15.5-6,23.8c1.1,2.2,2.6,4.1,4.5,5.6
		C982.4,671.4,989.7,681.7,965.2,700.2z"/>
	<g id="Group_432" transform="translate(49.353 88.718)">
		<path id="Path_840" class="st4" d="M894.9,655.6c-0.2,0-0.4-33.5-0.4-74.6s0.2-74.6,0.4-74.6s0.4,33.5,0.4,74.6
			C895.3,622.3,895.1,655.6,894.9,655.6z"/>
	</g>
	<g id="Group_433" transform="translate(20.357 162.423)">
		<path id="Path_841" class="st4" d="M923.9,528.8c-0.4-0.2-0.8-0.5-1.1-0.7c-0.7-0.6-1.9-1.5-3.2-2.4c-2.6-2.1-6.2-5.1-10.3-8
			c-4.1-3.2-7.7-5.8-10.5-7.9c-1.1-0.7-2.2-1.5-3.2-2.4c-0.4-0.3-0.8-0.6-1.1-0.9c0.5,0.2,0.9,0.4,1.3,0.7c0.7,0.6,1.9,1.3,3.4,2.2
			c2.8,1.9,6.5,4.5,10.7,7.7c4.1,3.2,7.7,6,10.1,8.2c1.3,1.1,2.2,2.1,3,2.6C923.6,528.2,923.9,528.6,923.9,528.8L923.9,528.8z"/>
	</g>
	<g id="Group_434" transform="translate(47.856 106.303)">
		<path id="Path_842" class="st4" d="M916.6,506.3c-1,1.4-2,2.8-3.2,4.1c-2.1,2.4-4.7,5.8-7.9,9.5c-3,3.7-5.8,7.1-7.7,9.5
			c-1,1.4-2.2,2.7-3.4,3.9c0.2-0.4,0.5-0.8,0.7-1.1c0.6-0.7,1.3-1.7,2.2-3c1.9-2.6,4.5-6,7.5-9.7c2.5-3.3,5.2-6.4,8-9.4
			c0.9-0.9,1.7-1.8,2.4-2.8L916.6,506.3z"/>
	</g>
	<g id="Group_436" transform="translate(75.934 441.206)">
		<circle id="Ellipse_25" class="st5" cx="-24.7" cy="-136.1" r="33.5"/>
		<path id="Path_843" class="st5" d="M-10.9-107.7l16.3,5.1l-1.3-16.8L-10.9-107.7z"/>
		<text transform="matrix(-1 0 0 -1 -18.852 -140.9646)" class="st6 st7 st8">ยก</text>
	</g>
	<g id="Group_439" transform="translate(767.146 150.141)" class="st9">
		<g id="Group_437" transform="translate(0 3.356)">
			<path id="Path_844" class="st4" d="M68,15.1c0,0,1.1-0.4,3.6-1.1c2.6-0.7,6.4-1.9,10.7-3.2c9.1-2.7,22.2-6.4,37.7-10.7l0.7-0.2
				l0.2,0.7c2.4,9.2,5.2,19.3,8,29.7c0.2-0.2-1.1,2.1-0.6,1.1H128l-0.4,0.2l-0.9,0.2l-1.9,0.6c-1.2,0.4-2.5,0.7-3.7,0.9
				c-2.4,0.7-4.9,1.3-7.3,1.9c-4.7,1.3-9.4,2.4-13.8,3.7c-8.8,2.2-16.8,4.5-23.9,6.4l-0.6,0.2L75.3,45c-2.3-9.2-4.1-16.7-5.6-22.1
				c-0.6-2.4-1.1-4.3-1.5-6C68,15.6,68,14.9,68,15.1c0.3,0.7,0.6,1.5,0.7,2.2c0.6,1.5,1.1,3.6,1.9,6c1.5,5.4,3.5,12.7,6.2,21.5
				L76,44.4c7.1-1.9,15.2-4.1,23.9-6.5c4.5-1.1,9-2.4,13.8-3.7c2.4-0.6,4.9-1.3,7.3-1.9c1.2-0.4,2.5-0.7,3.7-0.9l1.9-0.6l0.9-0.2
				l0.4-0.2h0.4c0.6-0.9-0.7,1.3-0.6,1.1c-2.7-10.5-5.5-20.6-7.9-29.7l0.9,0.6c-15.2,4.1-28.2,7.3-37.4,9.7
				c-4.5,1.1-8.2,2.1-10.9,2.8C71,14.7,69.5,14.8,68,15.1L68,15.1z"/>
		</g>
		<g id="Group_438" transform="translate(.18 4.282)">
			<path id="Path_845" class="st4" d="M120.2-0.1c0.2,0.2-2.1,3-5.8,7.5c-3.7,4.5-9,10.7-15,17.4c-1.9,0.6-0.6,0.2-0.9,0.2h-0.9
				l-0.7-0.2l-1.5-0.6c-1-0.3-2-0.7-3-1.1c-2.1-0.7-3.9-1.3-5.8-2.1c-3.6-1.3-6.7-2.4-9.7-3.4c-5.6-2.1-9-3.4-8.8-3.6
				c0-0.2,3.6,0.7,9.2,2.4c3,0.9,6.4,2.1,9.9,3.2c1.9,0.6,3.7,1.3,5.8,1.9c1,0.4,2,0.7,3,0.9l1.5,0.6l0.7,0.2l0.4,0.2H99
				c-0.4,0.2,0.9-0.2-0.9,0.2c6-6.7,11.4-12.7,15.3-17.2C117.4,2.3,120-0.3,120.2-0.1z"/>
		</g>
		<path id="Path_846" class="st10" d="M127.1,4.2c0.8,3.1-1,6.3-4.1,7.1s-6.3-1-7.1-4.1c-0.8-3.1,1-6.3,4.1-7.1S126.2,1.1,127.1,4.2
			z"/>
	</g>
	<g id="Group_455" transform="translate(255.248 195.961)" class="st9">
		<path id="Path_860" class="st4" d="M77.4,0.5c0,0.2-1.1,0-3,0.7c-2.6,1-4.6,3.1-5.4,5.8c-0.6,1.7-0.4,3.7-0.4,5.8v7.1
			c0,1.2,0,2.5,0.2,3.7c0.8,4.2,4.4,7.2,8.6,7.3H78v7.9l-1-0.4c2.8-2.4,5.6-4.9,8.6-7.3l0.2-0.2h19.3c1.2,0.1,2.4-0.1,3.6-0.4
			c2.3-0.7,4.2-2.2,5.2-4.3c0.5-1,0.8-2.1,0.9-3.2V12.6c0-2.2,0.2-4.5-0.6-6.4c-0.7-1.7-2-3.2-3.7-4.2c-1.7-0.8-3.6-1.2-5.4-1.1
			h-5.4c-6.7,0-12.2-0.2-16.1-0.2c-1.4,0-2.9,0-4.3-0.2L77.4,0.5c0.5,0,1-0.1,1.5-0.2c1.4,0,2.9,0,4.3-0.2c3.9,0,9.4-0.2,16.1-0.2
			h5.4c2-0.2,4,0.2,5.8,1.1c1.9,1,3.4,2.7,4.3,4.7c0.4,1.1,0.7,2.2,0.7,3.4v13.8c0,1.3-0.3,2.6-0.9,3.7c-1.2,2.4-3.3,4.2-5.8,5.1
			c-1.3,0.3-2.6,0.4-3.9,0.4H85.8l0.4-0.2c-3,2.4-5.8,5.1-8.6,7.3l-0.9,0.7v-1.1c0-2.6,0-5.1,0.2-7.3l0.6,0.6
			c-3.2,0.1-6.2-1.6-7.9-4.3c-0.7-1.2-1.2-2.5-1.5-3.9c-0.1-1.3-0.1-2.6,0-3.9v-7.1c0-2.2-0.2-4.3,0.6-6c1-2.8,3.2-5,6-6
			C75.5,0.4,76.5,0.3,77.4,0.5L77.4,0.5z"/>
	</g>
	<g id="Group_179" transform="translate(-344.684)">
		
			<linearGradient id="Path_500_1_" gradientUnits="userSpaceOnUse" x1="1177.1829" y1="717.2734" x2="1177.0319" y2="716.4055" gradientTransform="matrix(608.978 0 0 -177.832 -714477.125 127966.6641)">
			<stop  offset="0" style="stop-color:#FFFFFF"/>
			<stop  offset="0.992" style="stop-color:#E5E5E5;stop-opacity:0"/>
		</linearGradient>
		<path id="Path_500" class="st11" d="M2587.2,550.3l-154.8,177.8l-98.5-14.6L2529.4,558l-22.3,1.8l-232.5,168.4h-131.1l359.1-167.8
			l-24,1.8L2074,699.7l-95.9-26.4l454.2-122.9L2587.2,550.3L2587.2,550.3z"/>
		<g id="Group_181" transform="translate(785.711 105.049)">
			<ellipse id="Ellipse_19" class="st4" cx="1717.1" cy="180.1" rx="92.4" ry="89"/>
			<path id="Path_501" class="st4" d="M1646.7,445.3h154.8l-25.9-196.2l-25.5-36.9l-67.6,21.3L1646.7,445.3z"/>
			<g id="Group_180" transform="translate(0 .318)">
				<g id="Group_179-2">
					<path id="Path_502" class="st12" d="M1650.2,163.1c11.4-43.6,54.6-70.8,99.9-64.9c-3.8-1.6-7.7-2.9-11.7-3.9
						c-49.3-13-99.5,15-112,62.6c-12.5,47.5,17.4,96.6,66.7,109.7c4,1.1,8,1.8,12.1,2.4C1663,251.6,1638.8,206.7,1650.2,163.1z"/>
				</g>
				<path id="Path_503" class="st12" d="M1705.2,268.7l-21.9,176.2h-36.6l29.3-185.3L1705.2,268.7z"/>
				<path id="Path_504" class="st12" d="M1676,259.6h31.2l-2.6,14.2h-30.8L1676,259.6z"/>
				<path id="Path_505" class="st12" d="M1707.2,259.6c0,0-38-7.8-51.8-38.3l-12,10.7l43.5,32.5L1707.2,259.6z"/>
			</g>
		</g>
		<g id="Group_188" transform="translate(375.335 213.441)">
			<g id="Group_182" transform="translate(.696)">
				<path id="Path_506" class="st13" d="M1723.5,139.2l356-1.1V170l-10.6,0.1l2.4,56.6l-24.5,0.1l1-17.1l-12.8,0.1v17h-16l-0.1-19.1
					h-11.7l0.1,25.5l-14.9,0.1l-0.3-68.3l-268.5,0.8L1723.5,139.2z"/>
				<path id="Path_507" class="st13" d="M1695.8,91.1c-35.7,0.1-64.6,29.2-64.5,64.9s29.2,64.6,64.9,64.5
					c35.7-0.1,64.6-29.2,64.5-64.9l0,0C1760.6,119.9,1731.6,91,1695.8,91.1C1695.9,91.1,1695.9,91.1,1695.8,91.1z M1672.4,172.5
					c-9.2,0-16.6-7.4-16.6-16.6c0-9.2,7.4-16.6,16.6-16.6s16.6,7.4,16.6,16.6C1689,165,1681.6,172.4,1672.4,172.5
					C1672.5,172.5,1672.4,172.5,1672.4,172.5z"/>
				<path id="Path_508" class="st4" d="M1717.7,139.2l356-1V170l-10.6,0.1l2.2,56.6l-24.5,0.1l1.1-17.1l-12.8,0.1v17h-15.9
					l-0.1-19.1h-11.7l0.1,25.6h-14.9l-0.3-68.3l-268.5,0.8L1717.7,139.2z"/>
				<path id="Path_509" class="st4" d="M1688,91.1c-35.7,0.1-64.6,29.2-64.5,64.9s29.2,64.6,64.9,64.5c35.7-0.1,64.6-29.2,64.5-64.9
					l0,0C1752.8,119.9,1723.8,91,1688,91.1C1688.1,91.1,1688.1,91.1,1688,91.1z M1664.6,172.5c-9.2,0-16.6-7.4-16.6-16.6
					c0-9.2,7.4-16.6,16.6-16.6s16.6,7.4,16.6,16.6C1681.2,165,1673.8,172.4,1664.6,172.5C1664.7,172.5,1664.6,172.5,1664.6,172.5z"
					/>
				<path id="Path_510" class="st4" d="M1688,91.1c-35.7,0.1-64.6,29.2-64.5,64.9s29.2,64.6,64.9,64.5c35.7-0.1,64.6-29.2,64.5-64.9
					l0,0C1752.8,119.9,1723.8,91,1688,91.1C1688.1,91.1,1688.1,91.1,1688,91.1z M1664.6,172.5c-9.2,0-16.6-7.4-16.6-16.6
					c0-9.2,7.4-16.6,16.6-16.6s16.6,7.4,16.6,16.6C1681.2,165,1673.8,172.4,1664.6,172.5C1664.7,172.5,1664.6,172.5,1664.6,172.5z"
					/>
				<path id="Path_511" class="st13" d="M2073.7,138.2c0,0-14.8,12.4,0.1,31.9C2073.7,170,2086.9,151.3,2073.7,138.2z"/>
			</g>
			<g id="Group_183" transform="translate(429.252 120.967)" class="st14">
				<path id="Path_512" class="st15" d="M1623.5,106.2c0-4.5,2.2-8.8,5.9-11.4c1.2-0.8,2.5-1.5,3.9-2.1c1.4-0.7,2.9-1.2,4.5-1.5
					s3.2,0,4.6,0.8l0.4,13.7L1623.5,106.2z"/>
			</g>
			<g id="Group_184" transform="translate(448.972 47.541)" class="st14">
				<path id="Path_514" class="st15" d="M1630.1,121.4c-2-2.2-4-4.5-5-7.1c-0.6-1.9-1-3.9-1.1-5.9c-0.4-3.9-0.8-7.9,0-11.8
					c0.2-1.8,1-3.5,2.4-4.7c1.5-1.2,3.6-1.1,4.9,0.3L1630.1,121.4z"/>
			</g>
			<g id="Group_185" transform="translate(37.611 61.018)" class="st14">
				<path id="Path_515" class="st15" d="M1646.4,91.1c1-0.1,2.1,2.1,2.5,5.9c0.2,2.2,0.1,4.5-0.3,6.7c-0.6,3.2-2.2,6.1-4.7,8.2
					c-4.1,3.3-9.1,5.1-14.3,5.2c-3.9-0.1-6.1-1.3-6-2.2c0-1,2.2-1.7,5.3-2.8c1.8-0.6,3.5-1.4,5.2-2.2c1.9-0.9,3.8-2.1,5.4-3.5
					c1.4-1.2,2.4-2.7,3.1-4.5c0.6-1.8,1.1-3.6,1.5-5.4C1644.7,93.3,1645.4,91.2,1646.4,91.1z"/>
			</g>
			<g id="Group_186" transform="translate(239.634 51.576)" class="st16">
				<path id="Path_516" class="st15" d="M1628,91.6c5.6-1.4,11.5,0,15.9,3.6c5.3,4.5,7.9,11.8,13.9,15.2c5.7,3.1,12.7,1.7,18.7-0.7
					c6-2.4,11.8-5.7,18.3-6.3c6.4-0.6,13.8,2.8,15,9.1c-28.1,1.7-58.1,1.1-86.2,2.8"/>
			</g>
			<g id="Group_187" transform="translate(0 49.321)" class="st14">
				<path id="Path_517" class="st15" d="M1625.7,91.1c7.7,0.3,10.7,5.4,14.8,12s5.4,14.5,5.2,22.2c-0.3,4.6-1,9.3-0.4,13.9
					c1.4,10.2,10.6,18.8,20.8,19.5c3.3,0.1,6.6-0.1,9.8-0.8c4.2-0.7,8.2-1.3,12.4-2c5.9-0.8,12.5-1.7,16.4,4.9c1.1,2,1.7,4.2,2,6.4
					c0.3,4,1.4,0.1,0.3,4l-21.5-0.6c-32.3-0.8-58.9-25.8-61.9-58L1625.7,91.1z"/>
			</g>
		</g>
		<g id="Group_209" transform="translate(345.602 264.339)">
			<path id="Path_518" class="st17" d="M1713.9,169.9c0.3-0.5,1-0.7,1.5-0.6c0.6,0.2,1.1,0.5,1.5,0.8c4.8,3,10.9,2.8,15.5-0.6
				c-4.2-1.7-8.5-3.2-12.8-4.5c1.6-0.2,3-1.2,3.9-2.5c0.1-0.1,0.3-0.4,0.1-0.6c-0.1-0.1-0.3-0.2-0.4-0.1c-1.1-0.1-2.2,0.2-3.2,0.7
				c-2.1,0.8-4.2,1.8-6.3,2.6c-0.3,0.1-0.5,0.2-0.7,0.4c-0.1,0.3-0.2,0.6-0.1,1c0.2,0.9,0.2,1.9,0.3,2.8"/>
			<path id="Path_519" class="st18" d="M1654.6,333.1l-1.4,8.2l4.3-0.3l2-8.2L1654.6,333.1z"/>
			<path id="Path_520" class="st18" d="M1688.1,330.8l-0.6,8.4l4.2-0.8l1.3-8.4L1688.1,330.8z"/>
			<path id="Path_521" class="st17" d="M1661.6,100.2l5.6,14.9c1.2,3.3-0.4,6.9-3.7,8.2h-0.1l-2,0.7l0.8,10.9L1647,136l-2.2-30.8
				L1661.6,100.2z"/>
			<path id="Path_522" class="st19" d="M1661,91.5c0,0-3.1-2-6.8,3.1c-3.8,5-12.5,1.7-15.3,7.9c-2.9,6.3-0.7,13.7,3.2,19.2l2.8,4.3
				l7.8-0.6c0,0,3.3-7.5,2-9.6c0,0-8.6-1.3-6-5.9s6.8,2,6.8,2l2.2-0.3l-2.6-8.6c0,0,7.7-1.5,8.6-6.3
				C1664.4,91.7,1661,91.5,1661,91.5L1661,91.5z"/>
			<path id="Path_523" class="st19" d="M1634.4,217.8l19.6,46.1c1.8,4.3,2.5,8.9,2.1,13.5l-5,58l10.4-0.7c0,0,14.2-52,14.3-65.2
				c0-6.3-7.4-33.3-7.4-33.3s12.4,20.5,12.5,31.8s4.5,65.1,4.5,65.1l8.4-0.6c0,0,13.8-58.1,0.6-90.7c-11.6-28.6-17.6-45.7-17.6-45.7
				L1634.4,217.8z"/>
			<path id="Path_524" class="st20" d="M1646,129.6c-13.2,5.2-22,17.8-22.4,32c-1,24.8,10.9,56.3,10.9,56.3l43.2-16.7l-1.3-13.7
				l-7.7-46.8c-0.4-2.4-2.1-4.4-4.5-5.2L1646,129.6z"/>
			<g id="Group_189" transform="translate(39.346 47.325)">
				<path id="Path_525" class="st21" d="M1632.8,152.3c-0.1-0.2-0.2-0.4-0.1-0.6c-0.1-0.6-0.1-1.1-0.3-1.8c-0.3-1.8-0.7-4-1.1-6.5
					c-1-6-2.1-13.4-3.3-21.6c-1.3-8.2-2.4-15.6-3.2-21.6c-0.3-2.5-0.7-4.7-1-6.5c-0.1-0.7-0.1-1.3-0.3-1.8v-0.7
					c0.1,0.2,0.2,0.4,0.1,0.6c0.1,0.6,0.1,1.1,0.3,1.8c0.3,1.8,0.7,4,1.1,6.5c1,5.9,2.1,13.4,3.3,21.6c1.3,8.2,2.4,15.6,3.2,21.6
					c0.3,2.5,0.7,4.7,1,6.5c0.1,0.7,0.1,1.3,0.3,1.8V152.3z"/>
			</g>
			<path id="Path_526" class="st21" d="M1646,129.6l16.3,4.5l-0.6,4.5l-19.5-7.2L1646,129.6z"/>
			<path id="Path_527" class="st21" d="M1662.2,134.1l3.1,4.2l-0.1-3.5l-3.1-3.5L1662.2,134.1z"/>
			<path id="Path_528" class="st22" d="M1662.3,134.2l-0.6,4.3l2.9,3.9l0.4-4.5l-2.5-3.5"/>
			<path id="Path_529" class="st22" d="M1664.3,141.9c0,0,4.5,29.4-8.4,34.8s-17.6,6.4-17.6,6.4l-4.3,8.2l10.3,1.5
				c0,0,30-7.1,28.6-26.2c-1.4-18.9-8.1-26.5-8.1-26.5L1664.3,141.9z"/>
			<path id="Path_530" class="st20" d="M1635.8,157.1l39.6,18.8l38.6-2.8l-0.8-10.7l-31.6-0.4l-36.5-23.7"/>
			<g id="Group_190" transform="translate(12.457 67.666)">
				<path id="Path_531" class="st21" d="M1623.5,91.1c0,0,0.6,0.3,1.5,0.7c1,0.4,2.4,1.1,4.2,2c3.5,1.5,8.5,3.5,14.1,5.6
					s10.6,4.2,14.1,5.9c1.8,0.8,3.2,1.5,4.2,2.1s1.4,0.8,1.4,0.8s-0.6-0.3-1.5-0.7c-1-0.4-2.4-1.1-4.2-2c-3.5-1.5-8.5-3.5-14.1-5.6
					s-10.6-4.2-14.1-5.9c-1.8-0.8-3.2-1.5-4.2-2.1C1624.1,91.5,1623.5,91.2,1623.5,91.1z"/>
			</g>
			<g id="Group_191" transform="translate(26.528 50.215)">
				<path id="Path_532" class="st21" d="M1653.2,110.9c-0.4-0.2-0.8-0.3-1.3-0.6c-0.8-0.4-2-1.1-3.3-2c-2.8-1.7-6.4-4.2-10.4-7.1
					s-7.7-5.4-10.3-7.2c-1.1-0.7-2.2-1.4-3.2-2.1c-0.7-0.4-1.1-0.7-1.1-0.8s0.4,0.1,1.3,0.6c0.8,0.4,2,1.1,3.3,2
					c2.8,1.7,6.4,4.2,10.4,7.1s7.7,5.4,10.3,7.2c1.1,0.7,2.2,1.4,3.2,2.1C1652.8,110.6,1653.2,110.9,1653.2,110.9z"/>
			</g>
			<g id="Group_192" transform="translate(83.26 71.288)">
				<path id="Path_533" class="st21" d="M1625,102.1c-0.5-1.8-0.8-3.6-1-5.4c-0.4-3.1-0.7-5.6-0.4-5.6c0.5,1.8,0.8,3.6,1,5.4
					C1624.9,98.4,1625.1,100.2,1625,102.1z"/>
			</g>
			<g id="Group_193" transform="translate(84.765 77.924)">
				<path id="Path_534" class="st21" d="M1628.9,91.2c-0.8,0.5-1.7,0.9-2.6,1c-0.9,0.3-1.9,0.3-2.8,0.1c0.8-0.4,1.7-0.6,2.6-0.7
					C1627.1,91.2,1628,91.1,1628.9,91.2L1628.9,91.2z"/>
			</g>
			<path id="Path_535" class="st19" d="M1653.2,341.3c-0.7,1.4-1.1,3-1,4.6l22.6-1.7c0,0,2-4.6-17.1-3.3L1653.2,341.3z"/>
			<path id="Path_536" class="st19" d="M1687.5,338.8c-0.7,1.4-1.1,3-1,4.6l24-1.7c0,0,0.7-4.2-18.7-3.2L1687.5,338.8z"/>
			<g id="Group_194" transform="translate(36.678 248.62)">
				<path id="Path_537" class="st23" d="M1627.2,91.1c0.1,0.1-0.8,0.7-1.8,1.7c-1,0.8-1.7,1.7-1.8,1.5c-0.1-0.1,0.4-1.1,1.5-2
					C1625.9,91.4,1627,91,1627.2,91.1L1627.2,91.1z"/>
			</g>
			<g id="Group_195" transform="translate(38.632 249.037)">
				<path id="Path_538" class="st23" d="M1627,91.1c0.1,0.1-0.7,0.7-1.7,1.5c-1,0.7-1.8,1.4-1.8,1.3c-0.1-0.1,0.6-1,1.5-1.8
					C1626,91.4,1627,91,1627,91.1L1627,91.1z"/>
			</g>
			<g id="Group_196" transform="translate(40.997 249.028)">
				<path id="Path_539" class="st23" d="M1627.2,91.1c-0.6,0.5-1.2,0.9-1.8,1.3c-1,0.7-1.7,1.4-1.8,1.3c-0.1-0.1,0.4-1,1.5-1.8
					C1625.7,91.4,1626.4,91.2,1627.2,91.1L1627.2,91.1z"/>
			</g>
			<g id="Group_197" transform="translate(33.612 246.528)">
				<path id="Path_540" class="st23" d="M1626.6,95.4c-0.3-0.8-0.5-1.7-0.4-2.5c0-0.4,0.1-0.9,0.3-1.3c0.1-0.2,0.3-0.4,0.6-0.6
					c0.4-0.1,0.7,0.1,0.8,0.5l0,0c0,0.6-0.1,1.1-0.3,1.7l-0.3,0.8l-0.1,0.4c0,0.1-0.1,0.2-0.1,0.3c-0.1,0.1-0.3,0.3-0.4,0.1
					c-1.1-0.3-2.1-1-2.9-1.8c-0.1-0.3-0.3-0.7,0-1s0.6-0.4,0.8-0.3c0.5,0.1,0.9,0.4,1.1,0.8c0.5,0.7,0.7,1.5,0.7,2.4
					c-0.1-0.8-0.4-1.6-1-2.2c-0.2-0.3-0.5-0.5-0.8-0.6c-0.4,0-0.6,0.3-0.3,0.6c0.7,0.7,1.6,1.2,2.5,1.5c-0.1,0.3,0-0.3,0.1-0.4
					l0.3-0.8c0.1-0.5,0.2-0.9,0.3-1.4c0-0.4-0.3-0.1-0.6,0.1c-0.2,0.3-0.3,0.7-0.3,1.1C1626.5,93.9,1626.5,94.7,1626.6,95.4
					L1626.6,95.4z"/>
			</g>
			<g id="Group_198" transform="translate(71.358 245.72)">
				<path id="Path_541" class="st23" d="M1627,91.2C1627,91.1,1627.1,91.1,1627,91.2L1627,91.2h0.2c-0.7,0.5-1.3,1-2,1.5
					c-1.1,1-1.7,2.1-1.8,2c0.1-1,0.6-1.8,1.4-2.4c0.7-0.6,1.5-1.1,2.4-1.3l0.1,0.1h-0.3L1627,91.2L1627,91.2z"/>
			</g>
			<g id="Group_199" transform="translate(73.308 246.208)">
				<path id="Path_542" class="st23" d="M1626.9,91.2c0,0.1-1,0.6-1.8,1.3c-1,0.8-1.4,1.7-1.5,1.5c-0.1,0,0.1-1.1,1.3-2.1
					C1625.3,91.3,1626.1,91,1626.9,91.2z"/>
			</g>
			<g id="Group_200" transform="translate(75.265 246.507)">
				<path id="Path_543" class="st23" d="M1626.6,91.1c-0.5,0.4-1,0.8-1.5,1.1c-0.8,0.6-1.4,1.3-1.5,1.3s0.3-1,1.1-1.7
					C1625.6,91.1,1626.6,91,1626.6,91.1z"/>
			</g>
			<g id="Group_201" transform="translate(67.663 244.305)">
				<path id="Path_544" class="st23" d="M1626.5,94.9c-0.2-0.1-0.3-0.2-0.4-0.4c-0.1-0.5-0.2-1.1-0.1-1.7c0-0.4,0-0.8,0.1-1.1
					c0.1-0.1,0.1-0.6,0.6-0.6c0.4-0.1,0.7,0.4,0.7,0.7c0.1,0.5,0.1,1,0,1.5c0,0.3-0.1,0.6-0.1,0.8c0,0.1-0.1,0.3-0.1,0.4
					C1627,94.8,1626.8,94.9,1626.5,94.9c-0.6,0-1.1-0.1-1.7-0.3c-0.5-0.2-1-0.5-1.3-1c-0.1-0.3-0.1-0.6,0-0.8c0-0.3,0.6-0.3,0.6-0.1
					l0.3,0.1c0.3,0.2,0.7,0.4,1,0.7c1,1,1.4,1.8,1.3,1.8s-0.6-0.7-1.5-1.5c-0.3-0.1-0.6-0.4-0.8-0.6l-0.3-0.1V93h0.1
					c0,0.2,0,0.3,0.1,0.4c0.3,0.7,1.5,1,2.2,1.1c0.1,0.1,0.3-0.7,0.4-1v-1.4c0-0.3-0.1-0.3-0.1-0.3c-0.1,0-0.1,0.1-0.1,0.3
					c-0.1,0.4-0.2,0.7-0.1,1.1c-0.1,0.5-0.1,1-0.1,1.5C1626.4,94.6,1626.5,94.7,1626.5,94.9L1626.5,94.9z"/>
			</g>
			<g id="Group_202" transform="translate(27.504 238.857)">
				<path id="Path_545" class="st23" d="M1634.8,91.1c-1.8,0.6-3.7,0.9-5.6,1.1c-1.9,0.4-3.8,0.6-5.7,0.6c1.8-0.6,3.7-0.9,5.6-1.1
					C1631,91.4,1632.9,91.2,1634.8,91.1z"/>
			</g>
			<g id="Group_203" transform="translate(60.384 237.721)">
				<path id="Path_546" class="st23" d="M1635.2,91.2c-1.9,0.4-3.9,0.6-5.9,0.7c-1.9,0.3-3.9,0.3-5.9,0.1c1.9-0.4,3.9-0.6,5.9-0.7
					C1631.3,91.1,1633.3,91.1,1635.2,91.2z"/>
			</g>
			<g id="Group_204" transform="translate(18.022 128.267)">
				<path id="Path_547" class="st23" d="M1625.3,91.1c0.1-0.1,1.4,2.9,0.8,6.7c-0.3,2.3-1.2,4.5-2.6,6.3c1-2,1.7-4.2,2.1-6.4
					C1625.9,95.5,1625.8,93.3,1625.3,91.1z"/>
			</g>
			<g id="Group_205" transform="translate(49.342 114.474)">
				<path id="Path_548" class="st23" d="M1635.1,102c-0.8-0.1-1.6-0.4-2.4-0.7c-1.8-0.8-3.4-1.9-4.9-3.2c-1.4-1.4-2.6-3-3.5-4.7
					c-0.7-1.4-1-2.2-0.8-2.2c0.1-0.1,1.5,3.3,4.7,6.5C1630.3,99.5,1632.6,100.9,1635.1,102L1635.1,102z"/>
			</g>
			<g id="Group_206" transform="translate(36.113 120.609)">
				<path id="Path_549" class="st23" d="M1634.1,109.6c-0.9,0.6-1.8,1.2-2.8,1.7l-0.1,0.1l-0.1-0.1c-1.5-2.7-2.8-5.5-3.9-8.4
					c-1.3-3.2-2.4-6.1-2.9-8.2c-0.3-1.1-0.6-2-0.7-2.6c-0.1-0.4,0-0.7,0.3-1c-0.1,0.3-0.1,0.7,0,1c0.1,0.6,0.6,1.4,0.8,2.5
					c0.7,2.1,1.8,5,3.2,8.2c1.4,3.3,2.8,6.3,3.8,8.4l-0.3-0.1C1632.2,110.5,1633.2,110,1634.1,109.6L1634.1,109.6z"/>
			</g>
			<g id="Group_207" transform="translate(44.919 120.887)">
				<path id="Path_550" class="st23" d="M1644.8,208.4v-4.9c0-3.3,0.1-7.8,0.3-13.2c0.3-11.3,0.6-26.6,1-43.5
					c-0.2-7.9-1.7-15.8-4.5-23.3c-2.2-6.1-5-11.9-8.2-17.6c-2.2-3.8-4.5-7.5-7.1-11c-0.8-1.1-1.5-2.1-2.1-2.9
					c-0.3-0.3-0.5-0.6-0.7-1c0,0,0.3,0.3,0.8,1s1.3,1.5,2.2,2.8c2.6,3.5,5,7.2,7.2,11c3.3,5.6,6.1,11.6,8.4,17.7
					c2.8,7.5,4.4,15.4,4.6,23.4c-0.4,16.9-0.8,32-1.1,43.5c-0.1,5.4-0.3,9.9-0.4,13.1c0,1.4-0.1,2.6-0.1,3.6
					C1645,207.6,1645,208,1644.8,208.4L1644.8,208.4z"/>
			</g>
			<g id="Group_208" transform="translate(26.807 127.714)">
				<path id="Path_551" class="st23" d="M1629.9,203.7c0-0.4,0.1-0.7,0.1-1.1c0.1-1,0.4-2.1,0.7-3.3c0.7-3.1,1.5-7.2,2.6-12.3
					c1.3-6.1,2.5-12.2,3.8-18.3c0.7-3.5,1.4-7.1,2.1-10.7c0.8-3.8,1.3-7.7,1.7-11.6c0.1-8.1-1.7-15.6-3.6-22.3
					c-1.8-5.9-3.9-11.7-6.4-17.4c-2.1-4.9-3.9-8.8-5.3-11.4c-0.6-1.3-1.1-2.2-1.5-3.1c-0.2-0.4-0.4-0.7-0.6-1.1
					c0.2,0.3,0.4,0.6,0.6,1c0.4,0.8,1,1.8,1.7,3.1c1.4,2.6,3.3,6.4,5.4,11.3c2.5,5.7,4.7,11.5,6.5,17.4c2,6.7,3.8,14.4,3.6,22.4
					c-0.3,3.9-0.9,7.8-1.7,11.7c-0.7,3.6-1.4,7.2-2.1,10.7c-1.4,6.8-2.8,13-3.9,18.3c-1.1,5-2.1,9.1-2.8,12.3
					c-0.3,1.3-0.6,2.4-0.8,3.3C1630.1,202.9,1630,203.3,1629.9,203.7L1629.9,203.7z"/>
			</g>
			<path id="Path_552" class="st24" d="M1636,158.8c0,0,2.8,22.3,37.8,18.8l1-0.1l-0.3-3.2L1636,158.8z"/>
			<path id="Path_553" class="st24" d="M1634,191.4l8.6,2.4c2.2,0.6,4.5,0.6,6.7,0c6-1.7,17.6-6,19.5-14.5
				c-6.1,7.1-14.8,11-24.5,13.8L1634,191.4z"/>
			<path id="Path_554" class="st23" d="M1664.4,212.7c0,0.7-0.5,1.4-1.3,1.4c-0.7,0-1.4-0.5-1.4-1.3c0-0.7,0.5-1.4,1.3-1.4
				C1663.7,211.5,1664.3,212,1664.4,212.7z"/>
		</g>
		<g id="Group_230" transform="translate(813.503 244.098)">
			<path id="Path_555" class="st17" d="M1635.5,199.6c0.4-1.6,1.3-3,2.6-4c-0.8-0.9-1.7-1.7-2.6-2.4"/>
			<g id="Group_229">
				<path id="Path_556" class="st17" d="M1635.8,192.1c-1.1,0.7-2.5,0-3.8-0.4c-1.6-0.6-3.2-0.7-4.9-0.4c-0.2,0-0.4,0-0.6,0.1
					c-0.6,0.4-0.1,1.3,0.4,1.5s1.3,0.3,2,0.6c0.1,0.1,0.3,0.1,0.3,0.3c0.1,0.3-0.3,0.7-0.6,0.8c-1.8,1.3-3.3,2.8-4.6,4.6
					c-0.3,0.3-0.5,0.7-0.6,1.1c0,0.4,0.2,0.9,0.6,1.1c0.8,0.4,2.1-1.5,3.1-1.3c-0.3,0.9-0.5,1.8-0.6,2.8c0,0.3,0,0.7,0.3,0.8
					c0.2,0,0.3,0,0.4-0.1c0.7-0.4,1.5-1.8,2.2-2.4c0.3,0.6-0.1,2.2,0,2.8c0,0.6,0.6,1.4,1.1,1.3c0.8-0.1,0.8-2.1,1.4-2.8
					c0.6-0.4,0,1.3,0.4,2.6c0,0,1,1.4,2-1.5c0.5-1.5,0.9-2.9,1.3-4.5"/>
				<path id="Path_557" class="st17" d="M1641.3,126.5c-1.4-2.4-2.6-4.9-3.6-7.5c-0.1-0.4-0.3-0.8,0-1.1c0.3-0.3,0.7,0,1,0.3
					s0.6,0.7,0.8,0.7c0.2-1.1,0.1-2.2-0.1-3.2c-0.1-1.1,0.1-2.4,1-2.8c0.8,1.8,1.5,3.6,2.2,5.4c-0.1-1.2-0.2-2.3-0.1-3.5
					c0-0.3,0-0.7,0.1-1s0.4-0.4,0.7-0.3l0,0c0.3,0.1,0.3,0.6,0.3,1c0.1,4,0.7,8.4,2.5,11.8c-0.4-0.5-1.1-0.6-1.7-0.4
					C1643.6,126.1,1642.5,126.3,1641.3,126.5"/>
				<g id="Group_214" transform="translate(41.641 212.601)">
					<path id="Path_558" class="st18" d="M1644.1,91.2l1.8,8.1l-4.3-0.1l-2.4-8.1L1644.1,91.2z"/>
					<path id="Path_559" class="st19" d="M1645.8,99c0.9,1.3,1.5,2.9,1.7,4.5l-24,1.7c0,0-1.3-4,18-5.9L1645.8,99z"/>
					<g id="Group_210" transform="translate(11.163 7.601)">
						<path id="Path_560" class="st23" d="M1623.8,91.2c0.9,0,1.7,0.3,2.4,0.8c1.4,0.8,1.8,2.1,1.7,2.2c-0.1,0.1-0.8-1-2.1-1.7
							c-1-0.7-2-1-2.2-1.3H1623.8L1623.8,91.2z"/>
					</g>
					<g id="Group_211" transform="translate(9.63 8.147)">
						<path id="Path_561" class="st23" d="M1623.5,91.2c0-0.1,1.1-0.1,2.4,0.6c1.1,0.7,1.7,1.8,1.5,1.8c-0.1,0.1-0.7-0.7-1.8-1.4
							C1624.5,91.6,1623.5,91.4,1623.5,91.2z"/>
					</g>
					<g id="Group_212" transform="translate(7.958 8.7)">
						<path id="Path_562" class="st23" d="M1623.5,91.2c0-0.1,1-0.1,2,0.4c1,0.6,1.5,1.4,1.4,1.5s-0.7-0.4-1.7-1
							C1624.3,91.6,1623.5,91.5,1623.5,91.2L1623.5,91.2z"/>
					</g>
					<g id="Group_213" transform="translate(14.088 5.434)">
						<path id="Path_563" class="st23" d="M1625.2,94.9c0-0.2,0.1-0.4,0.1-0.6c0-0.5-0.1-1-0.3-1.5c-0.1-0.3-0.3-0.7-0.4-1
							c-0.1-0.1-0.1-0.3-0.3-0.3v0.3c0,0.5,0,0.9,0.1,1.4c0.1,0.4,0.4,1.1,0.6,1c0.7-0.3,2-0.7,2.1-1.4v-0.4l-0.3,0.1
							c-0.3,0.3-0.6,0.4-0.8,0.7c-0.5,0.5-1,1.1-1.3,1.8c0.2-0.8,0.5-1.5,1-2.1l0.8-0.8l0.3-0.1c0-0.1,0.6-0.1,0.6,0.1
							c0.1,0.3,0.1,0.6,0,0.8c-0.2,0.6-0.6,1-1.1,1.3s-1,0.5-1.5,0.6c-0.2,0-0.4-0.1-0.6-0.3c-0.1-0.1-0.1-0.3-0.3-0.4
							c-0.1-0.3-0.1-0.6-0.3-0.7c-0.1-0.5-0.2-1-0.1-1.5c0-0.1,0.1-0.7,0.6-0.7c0.4,0,0.6,0.3,0.7,0.6c0.1,0.4,0.2,0.7,0.3,1.1
							c0.2,0.5,0.2,1.1,0.1,1.7C1625.5,94.7,1625.3,94.9,1625.2,94.9L1625.2,94.9z"/>
					</g>
				</g>
				<g id="Group_219" transform="translate(68.391 210.232)">
					<path id="Path_564" class="st18" d="M1644.2,91.2l1.7,8.1l-4.3-0.1l-2.4-8.1L1644.2,91.2z"/>
					<path id="Path_565" class="st19" d="M1645.8,99c0.9,1.3,1.5,2.9,1.7,4.5l-24,1.7c0,0-1.3-4,18-5.9L1645.8,99z"/>
					<g id="Group_215" transform="translate(11.023 7.558)">
						<path id="Path_566" class="st23" d="M1623.8,91.2c0.9,0,1.7,0.3,2.4,0.8c1.4,0.8,1.8,2.1,1.7,2.2c-0.1,0.1-0.8-1-2.1-1.7
							c-1-0.7-2-1-2.2-1.3H1623.8L1623.8,91.2z"/>
					</g>
					<g id="Group_216" transform="translate(9.491 8.147)">
						<path id="Path_567" class="st23" d="M1623.5,91.2c0-0.1,1.1-0.1,2.4,0.6c1.1,0.7,1.7,1.8,1.5,1.8c-0.1,0.1-0.7-0.7-1.8-1.4
							C1624.9,91.9,1624.2,91.5,1623.5,91.2z"/>
					</g>
					<g id="Group_217" transform="translate(7.819 8.7)">
						<path id="Path_568" class="st23" d="M1623.5,91.2c0-0.1,1-0.1,2,0.4c1,0.6,1.5,1.4,1.4,1.5s-0.7-0.4-1.7-1
							C1624.3,91.6,1623.5,91.3,1623.5,91.2L1623.5,91.2z"/>
					</g>
					<g id="Group_218" transform="translate(14.088 5.434)">
						<path id="Path_569" class="st23" d="M1625.2,94.9c0-0.2,0.1-0.4,0.1-0.6c0-0.5-0.1-1-0.3-1.5c-0.1-0.3-0.3-0.7-0.4-1
							c-0.1-0.1-0.1-0.3-0.3-0.3v0.3c0,0.5,0,0.9,0.1,1.4c0.1,0.4,0.4,1.1,0.6,1c0.7-0.3,2-0.7,2.1-1.4v-0.4l-0.3,0.1
							c-0.3,0.3-0.6,0.4-0.8,0.7c-0.5,0.5-1,1.1-1.3,1.8c0.2-0.8,0.5-1.5,1-2.1l0.8-0.8l0.3-0.1c0-0.1,0.6-0.1,0.6,0.1
							c0.1,0.3,0.1,0.6,0,0.8c-0.2,0.6-0.6,1-1.1,1.3s-1,0.5-1.5,0.6c-0.2,0-0.4-0.1-0.6-0.3c-0.1-0.1-0.1-0.3-0.3-0.4
							c-0.1-0.3-0.1-0.6-0.3-0.7c-0.1-0.5-0.2-1-0.1-1.5c0-0.1,0.1-0.7,0.6-0.7c0.4,0,0.6,0.3,0.7,0.6c0.1,0.4,0.2,0.7,0.3,1.1
							c0.2,0.5,0.2,1.1,0.1,1.7C1625.3,94.7,1625.2,94.9,1625.2,94.9L1625.2,94.9z"/>
					</g>
				</g>
				<path id="Path_570" class="st19" d="M1696.7,119.8c0,0,17-5.3,25.2,28c8.2,33.2,3.1,42.5,3.1,42.5l-42.6-5.3
					c0,0,5.9-17.4,4.2-28.1s-8.1-31.1-8.1-31.1S1687.7,118.5,1696.7,119.8z"/>
				<path id="Path_571" class="st19" d="M1639.8,126.1c0,0,10.7,36.6,24.4,29.4s31.3-21.5,31.3-21.5l-15.2-10.9
					c0,0-17,20.6-20.9,17.4c-3.8-3.2-12.7-15-12.7-15L1639.8,126.1z"/>
				<path id="Path_572" class="st25" d="M1680.4,123.1l-15.2,31.9l20.3-13.5l-0.8-16L1680.4,123.1z"/>
				<path id="Path_573" class="st19" d="M1689.7,181.2c0,0-34.1,38.9-36.8,50.7c-2.6,11.7,27.7,76.2,27.7,76.2l7.5-0.6
					c0,0-16.4-62.4-14.8-69.7s18.4-27.6,18.4-27.6s-11.4,22.2-7.1,42.8c4.7,22.6,22,50,22,50l7.1-0.6c0,0-16.4-55.7-9.9-67.9
					c6.8-12.8,21.6-44.6,21.6-44.6L1689.7,181.2z"/>
				<g id="Group_220" transform="translate(67.981 100.585)">
					<path id="Path_574" class="st23" d="M1641.8,91.1c-0.1,0.4-0.2,0.7-0.3,1.1c-0.3,0.8-0.7,1.8-1.1,3.1
						c-1.1,2.9-2.5,6.7-4.2,11.3c-1.8,4.9-3.9,10.4-6.1,16.6c-1.1,3.2-2.4,6.4-3.6,9.8c-0.7,1.7-1.2,3.5-1.5,5.3s-0.6,3.8-0.7,5.6
						c-0.1,7.7,1.4,14.9,3.1,21.3c1.6,5.7,3.5,11.3,5.7,16.7c1.8,4.7,3.5,8.4,4.7,11c0.6,1.1,1,2.1,1.4,2.9c0.3,0.7,0.4,1,0.4,1
						c-0.2-0.3-0.4-0.6-0.6-1c-0.5-1-1-2-1.5-2.9c-1.3-2.5-2.9-6.3-4.9-10.9c-2.3-5.5-4.2-11-5.9-16.7c-2.1-7-3.2-14.2-3.2-21.5
						c0.1-1.9,0.3-3.8,0.7-5.7c0.4-1.8,1-3.6,1.7-5.3c1.3-3.3,2.5-6.7,3.8-9.8c2.4-6.1,4.5-11.8,6.3-16.6c1.8-4.6,3.2-8.4,4.3-11.1
						c0.4-1.1,0.8-2.2,1.3-3.1C1641.5,91.8,1641.6,91.4,1641.8,91.1L1641.8,91.1z"/>
				</g>
				<g id="Group_221" transform="translate(37.715 101.7)">
					<path id="Path_575" class="st23" d="M1653.8,91.1c0,0-0.3,0.3-0.8,1c-0.7,0.7-1.5,1.7-2.5,2.8c-2.1,2.4-5.3,5.9-8.9,10.3
						c-4.4,5.1-8.5,10.4-12.4,15.9c-1,1.5-2.1,3.2-3.1,4.9c-1.1,1.7-1.8,3.6-2.1,5.6c-0.7,4-0.1,8.4,0.6,12.7
						c1.6,8.1,3.8,16,6.7,23.7c2.5,7.1,5,13.5,7.2,18.8s4,9.6,5.3,12.5c0.6,1.4,1.1,2.5,1.5,3.3c0.1,0.4,0.3,0.9,0.6,1.3
						c-0.2-0.4-0.4-0.7-0.6-1.1c-0.4-1-1-2-1.5-3.3c-1.4-2.9-3.2-7.1-5.4-12.4s-4.7-11.7-7.2-18.8c-2.9-7.7-5.1-15.7-6.7-23.8
						c-0.7-4.3-1.3-8.6-0.6-12.8c0.4-2,1.1-4,2.2-5.7c1-1.8,2.1-3.3,3.1-5c3.9-5.5,8.1-10.8,12.5-15.9c3.8-4.3,6.8-7.8,9.1-10.2
						c0.8-0.9,1.6-1.8,2.5-2.6C1653.3,91.7,1653.5,91.3,1653.8,91.1L1653.8,91.1z"/>
				</g>
				<g id="Group_222" transform="translate(55.729 214.168)">
					<path id="Path_576" class="st23" d="M1631.6,91.2c-1.3,0.4-2.7,0.6-4,0.6c-1.3,0.2-2.7,0.2-4,0c1.3-0.4,2.7-0.6,4-0.6
						C1628.9,91,1630.3,91,1631.6,91.2z"/>
				</g>
				<g id="Group_223" transform="translate(80.807 207.27)">
					<path id="Path_577" class="st23" d="M1632.8,91.1c-1.5,0.6-3,1-4.6,1.1c-1.6,0.3-3.1,0.5-4.7,0.6c1.5-0.6,3-1,4.6-1.1
						C1629.7,91.4,1631.3,91.2,1632.8,91.1z"/>
				</g>
				<g id="Group_224" transform="translate(90.883 98.491)">
					<path id="Path_578" class="st23" d="M1627.9,104.8c-0.8,0.1-1.7-0.2-2.2-0.8c-1.2-1.5-1.9-3.3-2.1-5.2
						c-0.4-2.7,0.2-5.4,1.5-7.7c-0.9,2.4-1.2,5-1,7.5c0.2,1.8,0.8,3.5,1.8,5C1626.5,104.2,1627.2,104.6,1627.9,104.8z"/>
				</g>
				<g id="Group_225" transform="translate(57.68 94.033)">
					<path id="Path_579" class="st23" d="M1639.3,91.1c-0.4,0.8-0.9,1.5-1.5,2.1c-1.5,1.5-3.3,2.7-5.3,3.5c-2,0.9-4.1,1.2-6.3,1.1
						c-1.7,0-2.6-0.3-2.6-0.4c2.9,0.2,5.9-0.2,8.6-1.3C1636.8,94.3,1639.1,91,1639.3,91.1z"/>
				</g>
				<g id="Group_226" transform="translate(71.042 94.037)">
					<path id="Path_580" class="st23" d="M1631,91.1c-0.3,0.8-0.6,1.5-1,2.2c-0.8,1.8-1.8,3.5-2.8,5.2s-2,3.3-3.2,4.9
						c-0.3,0.6,0.3,1,0.6,1.3c0.2,0.1,0.4,0.1,0.6,0.3c-0.2,0-0.5-0.1-0.7-0.1c-0.3-0.1-0.5-0.2-0.7-0.4c-0.3-0.3-0.4-0.8-0.1-1.1
						c0.8-1.4,2-3.1,3.1-5C1629.2,94.3,1630.9,91.1,1631,91.1z"/>
				</g>
				<path id="Path_581" class="st23" d="M1704.3,186.5c-0.4,0.2-0.7,0.6-0.8,1.1c0,0.4,0.4,1,0.8,0.8c0.1,0,0.3-0.1,0.4-0.3
					C1705,187.6,1704.9,186.9,1704.3,186.5"/>
				<path id="Path_582" class="st25" d="M1686.2,185.3l39.3,4.9l-1.9,4l-38.3-7.8L1686.2,185.3z"/>
				<g id="Group_227" transform="translate(31.868)">
					<path id="Path_583" class="st17" d="M1629.7,105.2l6.8,14.4c1.5,3.2,5.3,4.6,8.4,3.1c0,0,0,0,0.1,0l2-0.8l7.2,8.2l11.4-10
						L1645.1,97L1629.7,105.2z"/>
					<path id="Path_584" class="st19" d="M1624.1,99.7c0,0,0.7-3.6,7-2.8c6.1,0.8,9.9-7.8,16.4-5.4s10.2,9.1,11.4,15.7l1.3,5
						l-5.9,5.2c0,0-7.8-2.9-8.2-5.4c0,0,5.2-7,0-8.4s-3.3,6.1-3.3,6.1l-1.8,1.4l-4.3-7.9c0,0-6.4,4.5-10.6,1.8
						C1621.9,102.4,1624.1,99.7,1624.1,99.7L1624.1,99.7z"/>
				</g>
				<path id="Path_585" class="st21" d="M1685.9,132.5c0.1-0.6-0.4-5.6-0.4-5.6l9.9-9.3l5,2.4"/>
				<path id="Line_9" class="st21" d="M1700.6,120.1l-14.6,12.4"/>
				<path id="Path_586" class="st21" d="M1685.1,147.5l-2.4-21.3l3.8,3.9l-1.3,18.3"/>
				<path id="Path_587" class="st23" d="M1685.8,129.3l3.9,12.1l-4.5,9.2L1685.8,129.3z"/>
				<path id="Path_588" class="st23" d="M1685.1,149.9l-4-15.2l1.7-8.5L1685.1,149.9z"/>
				<path id="Path_589" class="st22" d="M1683.1,126.2l2.6,3.1l-0.1,6.1l-2.2-1.5l-0.8-6.8"/>
				<path id="Path_591" class="st22" d="M1684.7,134.7c0,0,2.9,30.7-10.3,30.9c-13.2,0.3-15.5-2.5-15.5-2.5l-7.7,4.2l4.2,8.1
					c0,0,18,6,29-1.1c18.1-11.7,1.4-38.9,1.4-38.9L1684.7,134.7z"/>
				<path id="Path_592" class="st19" d="M1693.2,143.6c-1.3,0.6-59.6,47.9-59.6,47.9l4.9,5c0,0,52.1-30,56-36.5
					S1693.2,143.6,1693.2,143.6L1693.2,143.6z"/>
				<g id="Group_228" transform="translate(61.859 51.535)">
					<path id="Path_593" class="st23" d="M1629.4,111.3c0,0,0.6-0.3,1.7-1c1.6-0.8,3.1-1.7,4.6-2.6c2.2-1.4,4.3-3,6.3-4.6
						c1.2-0.9,2.3-2,3.1-3.3c0.9-1.3,1-3,0.3-4.5c-1-1.3-2.3-2.2-3.9-2.6c-1.4-0.6-2.9-0.9-4.5-1c-2.9-0.1-5.3,1.3-7.2,2.4
						c-1.7,1-3.1,2-4.5,2.8c-1.1,0.7-1.7,1-1.7,1s0.6-0.4,1.5-1.1c1.3-0.8,2.8-2,4.5-3.1c1.8-1.1,4.3-2.6,7.5-2.5
						c1.6,0.1,3.1,0.4,4.6,1c1.7,0.5,3.1,1.5,4.2,2.9c0.8,1.6,0.7,3.5-0.3,5c-0.8,1.3-1.9,2.4-3.2,3.3c-2,1.7-4.1,3.3-6.4,4.6
						c-1.6,0.9-3.1,1.7-4.7,2.5c-0.4,0.2-0.9,0.4-1.4,0.6C1629.5,111.3,1629.4,111.3,1629.4,111.3L1629.4,111.3z"/>
				</g>
				<path id="Path_594" class="st23" d="M1676.9,169.1c1.1,1.5-0.7,4.7-4,7s-7,2.8-7.9,1.3s0.7-4.7,4-7
					C1672.3,168,1675.8,167.4,1676.9,169.1z"/>
				<path id="Path_595" class="st25" d="M1684.5,176.9c0,0,24.4-14.6,22.8-25.6l-22.4,16.4C1685,167.7,1686.2,170.6,1684.5,176.9z"
					/>
			</g>
		</g>
		<path id="Path_596" class="st24" d="M2078,608c0,2.9-24.5,5.3-54.9,5.3c-30.2,0-54.9-2.4-54.9-5.3c0-2.9,24.5-5.3,54.9-5.3
			S2078,605.1,2078,608z"/>
		<path id="Path_597" class="st24" d="M2298.5,601.6c0,2.9-24.5,5.3-54.9,5.3c-30.2,0-54.9-2.4-54.9-5.3c0-2.9,24.5-5.3,54.9-5.3
			S2298.5,598.6,2298.5,601.6z"/>
		<g id="Group_239" transform="translate(546.115 257.93)">
			<path id="Path_598" class="st17" d="M1704.9,100.2l5.6,15c1.3,3.2-0.3,6.9-3.6,8.1c-0.1,0-0.1,0-0.2,0.1l-2,0.7l0.8,11l-15.3,1.1
				l-2.2-30.9L1704.9,100.2z"/>
			<path id="Path_599" class="st19" d="M1704.3,91.5c0,0-3.1-2-6.8,3.1s-12.5,1.7-15.5,7.9s-0.7,13.7,3.2,19.4l2.8,4.5l7.8-0.6
				c0,0,3.3-7.7,2-9.8c0,0-8.6-1.3-6-5.9s6.8,2,6.8,2l2.2-0.3l-2.6-8.6c0,0,7.7-1.5,8.6-6.4C1707.7,91.7,1704.3,91.5,1704.3,91.5
				L1704.3,91.5z"/>
			<path id="Path_600" class="st26" d="M1677.7,243.5l2,22.3c0.5,6.4,0.3,12.9-0.7,19.2l-8.6,55.3h4.9l16-42.6
				c3-7.9,4.7-16.2,5.2-24.7l1.7-29.4h-20.3v-0.1L1677.7,243.5L1677.7,243.5z"/>
			<path id="Path_601" class="st26" d="M1695.9,235.5l3.9,28.3c1.4,8.1,2,16.2,1.8,24.4l-1.3,53.6l4.2-1.7l8.6-35
				c3.5-14.3,4.5-29,2.9-43.6l-1.8-26L1695.9,235.5L1695.9,235.5z"/>
			<path id="Path_602" class="st19" d="M1691.5,136.1c0,0-13.2-3.1-10.2,16.7c3.1,19.8,6.5,30.4,6.5,30.4s-23.3,26.9-16.2,62.8
				l1.8,20.1h48.3l-6.1-95l1.5-1.8c2.5-3,3.6-7,2.8-10.9l-2.4-12.1l32.5-5l26.3-22.8l-6.1-5l-21.6,16L1691.5,136.1z"/>
			<path id="Path_603" class="st19" d="M1693.8,100.2c-4.6,5.3-7.2,11.7-1.8,16c0.9,0.6,1.6,1.4,2.1,2.4c0.3,0.6,3.5,1.3,3.5,1.8
				c-0.4,7-4.2,14.1-4.6,21c-0.1,2.8-0.4,5.6-1.8,7.9c-2.1,3.3-6.3,4.7-9.2,7.4c-3.2,2.8-5,6.8-7.8,10.2c-4.3,4.9-10.6,7.7-17.1,8.5
				c-8.2,1.1-16.4-0.9-23.1-5.7c-6.7-4.9-10.6-12.9-10.3-21.2c0.6-11.8,11-21.7,22.6-24.2c4.9-1,10-1,14.8-2.2
				c4.9-1.3,9.8-4.3,11.1-9.1c0.8-2.6,0.4-5.6,1.5-8.2c0,0,2.8-10.9,20.6-7.8"/>
			<path id="Path_604" class="st19" d="M1676.5,340c0,0,8.9,1.4,9.3,3.3c0.4,1.8-16.3-1-16.3-1l0.3-2.1"/>
			<path id="Path_605" class="st19" d="M1704.6,339.7c0,0,10.9,0.6,11.4,2.4c0.7,1.8-16.2,1.4-16.2,1.4v-2.1"/>
			<g id="Group_232" transform="translate(52.275 113.211)">
				<path id="Line_10" class="st23" d="M1623.5,91.1l42.5,5.2"/>
				<g id="Group_231">
					<path id="Path_606" class="st23" d="M1666,96.3c0,0.1-9.6-0.8-21.3-2.2s-21.2-2.8-21.2-2.9s9.6,0.8,21.3,2.2
						C1656.5,94.9,1666,96.1,1666,96.3z"/>
				</g>
			</g>
			<g id="Group_233" transform="translate(64.396 89.365)">
				<path id="Path_607" class="st23" d="M1635.4,91.1c-1.9,0.7-3.9,1.1-5.9,1.4c-2,0.4-4,0.7-6,0.7c1.9-0.7,3.9-1.1,5.9-1.4
					C1631.3,91.4,1633.3,91.2,1635.4,91.1z"/>
			</g>
			<g id="Group_234" transform="translate(66.903 92.553)">
				<path id="Path_608" class="st23" d="M1634.5,92.8c-1.9,0.1-3.7-0.1-5.6-0.4c-3.1-0.4-5.4-1-5.4-1.3c1.9-0.1,3.7,0.1,5.6,0.4
					C1632,92.1,1634.5,92.5,1634.5,92.8z"/>
			</g>
			<g id="Group_235" transform="translate(78.735 53.316)">
				<path id="Path_609" class="st23" d="M1647.8,91.1c-1.1,0.4-2.3,0.7-3.5,0.8c-2.2,0.4-5.3,1-8.6,1.5s-6.4,1-8.6,1.3
					c-1.2,0.2-2.3,0.5-3.5,0.8c-0.1-0.1,1.1-1,3.3-1.4s5.3-1,8.6-1.5s6.4-1,8.6-1.3C1646.4,91.2,1647.8,91.1,1647.8,91.1
					L1647.8,91.1z"/>
			</g>
			<path id="Path_610" class="st23" d="M1744.5,141.9c2.6-3.5,7-5.2,11.3-5.6c-1.4,1.3-2.9,2.6-4.5,3.8c-0.3,0.3-0.7,0.8-1.1,1
				c-0.3,0.1-0.6,0-1,0.1c-1.8,0.4-3.5,0.4-5,0.8"/>
			<g id="Group_236" transform="translate(57 40.916)">
				<path id="Path_611" class="st23" d="M1637.2,91.1c0.1,0,0.1,1.7-0.8,4.3c-1,2.5-2.5,5.9-4.3,9.6c-1.6,3.2-3.4,6.1-5.6,8.9
					c-0.9,1.1-1.9,2.2-2.9,3.2c-0.1-0.1,1-1.4,2.5-3.5c2-2.8,3.7-5.8,5.3-8.9c1.6-3.1,3-6.3,4.5-9.5
					C1636.3,93.9,1636.8,92.5,1637.2,91.1L1637.2,91.1z"/>
			</g>
			<g id="Group_238" transform="translate(84.297 120.33)">
				<path id="Path_612" class="st23" d="M1624.1,91.1c-0.7,18.5-0.1,36.9,1.8,55.3"/>
				<g id="Group_237">
					<path id="Path_613" class="st23" d="M1626,146.5l-0.4-2.1c-0.1-1.4-0.4-3.3-0.7-5.9c-0.6-5-1-12-1.3-19.6
						c-0.3-7.7-0.1-14.6,0-19.6c0.1-2.5,0.1-4.6,0.3-6s0.1-2.2,0.3-2.2c0.1,0.7,0.1,1.5,0,2.2v6c0,5,0,12,0.3,19.6
						c0.3,7.7,0.7,14.5,1.1,19.5c0.1,2.4,0.3,4.5,0.4,6L1626,146.5L1626,146.5z"/>
				</g>
			</g>
			<path id="Path_614" class="st17" d="M1771.4,115c1-3.5,2.2-7.2,4.9-9.8c0.8,1.3-0.6,2.9,0,4.3c1.4-1.4,3.2-2.8,5.2-2.4
				c-0.5,1.2-1.4,2.1-2.5,2.8c1.4-0.7,3.1-1.4,4.6-0.8c-1.4,1.1-2.8,2.1-4.2,3.1c1.5-0.3,3.1-0.4,4.6-0.4c0.3,0.3-0.1,0.7-0.4,0.8
				c-1.1,0.6-2.2,1.1-3.3,1.5c0.7,0,1.3,0.1,2,0.1c0.3,0,0.6,0,0.7,0.3s-0.1,0.7-0.4,1c-0.9,0.6-2,1-3.1,1.3
				c-1.3,0.4-2.6,0.7-3.9,1.1h-0.3c-0.1,0-0.3-0.1-0.3-0.3c-1.1-1.3-2.6-2.2-4.3-2.6"/>
		</g>
		<g id="Group_252" transform="translate(379.236 17.415)">
			<g id="Group_240" transform="translate(518.976 41.936)">
				<path id="Path_615" class="st27" d="M1632.6,91.1l3.3,5.9l5.9,3.3l-5.9,3.2l-3.3,5.9l-3.2-5.9l-5.9-3.2l5.9-3.3L1632.6,91.1z"/>
			</g>
			<g id="Group_241" transform="translate(0 32.741)">
				<path id="Path_616" class="st27" d="M1632.7,91.1l3.2,5.9l6,3.3l-6,3.2l-3.2,6l-3.2-6l-6-3.2l6-3.3L1632.7,91.1z"/>
			</g>
			<g id="Group_242" transform="translate(237.266 144.338)">
				<path id="Path_617" class="st27" d="M1637.4,91.1l4.9,9.1l9.1,5l-9.1,4.9l-4.9,9.1l-5-9.1l-8.9-4.9l8.9-5L1637.4,91.1z"/>
			</g>
			<g id="Group_245" transform="translate(30.79 73.702)">
				<g id="Group_244">
					<g id="Group_243">
						<path id="Path_618" class="st27" d="M1647.6,91.1c0,0.1-0.1,0.2-0.1,0.3c-0.2,0.3-0.3,0.5-0.4,0.8c-0.6,1-1.1,2-1.5,3.1
							c-1.4,2.6-3.3,6.4-5.9,11c-4.2,2.4-9.3,5.2-15,8.4v-0.6c4.6,2.5,9.6,5.3,15,8.2h0.1v0.1c2.6,4.7,5.4,9.8,8.2,15h-0.7v-0.1
							l0.1-0.3l0.3-0.4l0.6-1c0.4-0.7,0.7-1.3,1.1-2l2.1-3.8c1.4-2.5,2.8-5,4-7.4v-0.1h0.1c5.3-2.9,10.4-5.7,15-8.2v0.6
							c-5.7-3.2-10.7-6-15-8.4c-2.5-4.7-4.5-8.4-5.9-11c-0.6-1-1.1-2-1.5-3.1l-0.4-0.8C1647.8,91.4,1647.7,91.2,1647.6,91.1
							c0,0,0.1,0.3,0.6,1s1,1.7,1.7,2.9c1.5,2.6,3.6,6.4,6.3,11l-0.1-0.1c4.3,2.4,9.3,5,15,8.2l0.6,0.3l-0.6,0.3
							c-4.6,2.5-9.6,5.3-15,8.2l0.1-0.1c-1.3,2.4-2.6,4.9-4,7.4l-2.1,3.8c-0.4,0.7-0.7,1.3-1.1,2l-0.6,1l-0.3,0.4l-0.1,0.3v0.1h-0.7
							c-2.8-5.3-5.6-10.3-8.2-15l0.1,0.1c-5.4-2.9-10.4-5.7-15-8.2l-0.6-0.3l0.6-0.3c5.7-3.1,10.9-5.9,15-8.2l-0.1,0.1
							c2.1-3.7,4.2-7.4,6.3-11c0.7-1.3,1.3-2.2,1.7-2.9C1647.2,91.7,1647.5,91.4,1647.6,91.1z"/>
					</g>
				</g>
			</g>
			<g id="Group_246" transform="translate(362.378 186.553)">
				<path id="Path_619" class="st27" d="M1632.8,91.1l3.3,6.1l6.1,3.3l-6.1,3.3l-3.3,6.1l-3.3-6.1l-6-3.3l6-3.3L1632.8,91.1z"/>
			</g>
			<g id="Group_247" transform="translate(182.93 201.042)">
				<path id="Path_620" class="st27" d="M1628,91.1l1.7,2.9l2.9,1.5l-2.9,1.7l-1.7,2.9l-1.5-2.9l-2.9-1.7l2.9-1.5L1628,91.1z"/>
			</g>
			<g id="Group_248" transform="translate(492.783)">
				<path id="Path_621" class="st27" d="M1628,91.1l1.7,2.9l2.9,1.7l-2.9,1.5l-1.7,2.9l-1.5-2.9l-2.9-1.5l2.9-1.7L1628,91.1z"/>
			</g>
			<g id="Group_249" transform="translate(139.044 60.187)">
				<path id="Path_622" class="st27" d="M1628.1,91.1l1.5,2.9l2.9,1.7l-2.9,1.5l-1.5,2.9l-1.7-2.9l-2.9-1.5l2.9-1.7L1628.1,91.1z"/>
			</g>
			<g id="Group_250" transform="translate(81.782 342.594)">
				<path id="Path_623" class="st27" d="M1632.7,91.1l3.2,5.9l6,3.3l-6,3.2l-3.2,5.9l-3.2-5.9l-6-3.2l6-3.3L1632.7,91.1z"/>
			</g>
			<g id="Group_251" transform="translate(162.45 362.378)">
				<path id="Path_624" class="st27" d="M1628,91.1l1.7,2.9l2.9,1.7l-2.9,1.5l-1.7,2.9l-1.5-2.9l-2.9-1.5l2.9-1.7L1628,91.1z"/>
			</g>
		</g>
		<g id="Group_265" transform="translate(353.534)">
			<g id="Group_255" transform="translate(345.241 105.049)">
				<g id="Group_254">
					<g id="Group_253">
						<path id="Path_625" class="st27" d="M1676.1,143.6v-3.8c0-2.5,0-6.1-0.1-10.6c0-9.2-0.1-22.2-0.1-37.8l0.3,0.3H1624l0.4-0.4
							v52.1l-0.3-0.3c15.6,0,28.6,0.1,37.8,0.1c4.6,0,8.1,0,10.6,0.1h3.5L1676.1,143.6h-3.8c-2.5,0-6,0-10.6,0.1
							c-9.2,0-22.3,0.1-37.9,0.1h-0.3V91.5l0.4-0.4h52.5v0.3c0,15.6-0.1,28.7-0.1,37.9c0,4.5,0,8.1-0.1,10.6v3.5
							C1676.2,143.5,1676.2,143.6,1676.1,143.6z"/>
					</g>
				</g>
			</g>
			<g id="Group_258" transform="translate(187.667 117.867)">
				<g id="Group_257">
					<g id="Group_256">
						<path id="Path_626" class="st27" d="M1649.4,116.7v-2c0-1.3,0-3.1-0.1-5.2c0-4.5-0.1-10.7-0.1-18.3l0.3,0.3H1624l0.4-0.4v25.5
							l-0.3-0.3c7.5,0,13.8,0.1,18.3,0.1c2.2,0,3.9,0,5.2,0.1c-1.3,0-2.9,0-5.2,0.1c-4.6,0-10.9,0.1-18.5,0.1h-0.3V91.5l0.4-0.4
							h25.6v0.3c0,7.5-0.1,13.9-0.1,18.5c0,2.1,0,3.9-0.1,5.2V116.7L1649.4,116.7z"/>
					</g>
				</g>
			</g>
			<g id="Group_261" transform="translate(74.537)">
				<g id="Group_260">
					<g id="Group_259">
						<path id="Path_627" class="st27" d="M1676.1,143.6v-3.8c0-2.5,0-6.1-0.1-10.6c0-9.2-0.1-22.2-0.1-37.8l0.3,0.3H1624l0.4-0.4
							v52.1l-0.3-0.3c15.6,0,28.6,0.1,37.8,0.1c4.6,0,8.1,0,10.6,0.1h3.5C1675.9,143.6,1676,143.6,1676.1,143.6h-3.8
							c-2.5,0-6,0-10.6,0.1c-9.2,0-22.3,0.1-37.9,0.1h-0.3V91.5l0.4-0.4h52.5v0.3c0,15.7-0.1,28.7-0.1,37.9c0,4.5,0,8.1-0.1,10.6
							v3.5L1676.1,143.6z"/>
					</g>
				</g>
			</g>
			<g id="Group_264" transform="translate(0 179.669)">
				<g id="Group_263">
					<g id="Group_262">
						<path id="Path_628" class="st27" d="M1643.4,110.9c0-0.5-0.1-1-0.1-1.5c0-1,0-2.4-0.1-4c0-3.5-0.1-8.4-0.1-14.1l0.3,0.3h-19.5
							l0.4-0.4v19.5h-0.3c5.7,0,10.6,0.1,14.1,0.1c1.3,0,2.7,0,4,0.1H1643.4c-0.5,0-0.9,0.1-1.4,0.1c-1,0-2.4,0-3.9,0.1
							c-3.5,0-8.5,0.1-14.2,0.1h-0.3V91.6l0.4-0.4h19.8v0.3c0,5.9-0.1,10.7-0.1,14.2c0,1.3,0,2.6-0.1,3.9
							C1643.5,110,1643.5,110.5,1643.4,110.9L1643.4,110.9z"/>
					</g>
				</g>
			</g>
		</g>
		<g id="Group_286" transform="translate(678.465 343.032)">
			<g id="Group_271" transform="translate(35.688 30.747)">
				<g id="Group_266">
					<path id="Path_629" class="st13" d="M1640.1,185.4c6.5,2.2,14.3,1.7,19.2-3.3c4.9-5.2,6.1-12.9,2.9-19.4
						c-1.5-3.1-4-5.9-3.9-9.2c0.2-1.8,0.9-3.5,2-5c2-2.9,4.6-5.4,6.4-8.4c1.8-3.1,2.9-6.8,1.5-10c-2.8-6.3-12.7-6.5-15.6-12.8
						c-1.4-2.9-0.8-6.4-0.6-9.6c0.3-3.9,0.1-7.9-1.7-11.4c-1.8-3.3-5.9-5.9-9.6-5c-4.5,1-6.8,6-8.5,10.3c-1.1,2.9-2.2,5.7-3.3,8.6
						c-3.1,7.9-6.1,16.6-4,24.9c1.7,6.7,6.4,12.1,10.3,17.8c0.7,1.1,1.5,2.2,1.4,3.6c-0.1,2-2.2,3.3-4.3,3.8c-2,0.4-4.2,0.4-5.9,1.5
						c-2.1,1.3-3.1,3.9-2.9,6.4c0.3,2.4,1.2,4.8,2.8,6.7C1626.3,174.9,1632.9,182.9,1640.1,185.4L1640.1,185.4z"/>
				</g>
				<g id="Group_267" transform="translate(21.748 35.411)">
					<path id="Path_630" class="st13" d="M1623.5,91.1v59.6"/>
				</g>
				<g id="Group_268" transform="translate(21.33 45.024)">
					<path id="Path_631" class="st13" d="M1623.5,107.4c3.2-4.3,6.5-8.5,9.8-12.8c0.9-1.2,1.9-2.4,2.9-3.5"/>
				</g>
				<g id="Group_269" transform="translate(11.995 75.396)">
					<path id="Path_632" class="st13" d="M1623.5,91.1c3,2.9,5.9,6,8.5,9.2c0.5,0.5,0.9,1.2,1,2"/>
				</g>
				<g id="Group_270" transform="translate(12.831 33.878)">
					<path id="Path_633" class="st13" d="M1623.5,91.1c2.6,3.6,5.7,9.9,8.5,13.9"/>
				</g>
			</g>
			<g id="Group_285">
				<g id="Group_272">
					<path id="Path_634" class="st28" d="M1646.1,219.4c8.9,3.1,19.6,2.2,26.2-4.6c6.7-7.1,8.2-17.6,3.9-26.3
						c-2.1-4-5.6-7.9-5.4-12.5c0.3-2.5,1.2-4.8,2.6-6.8c2.6-3.9,6.3-7.4,8.8-11.4s3.9-9.3,2.1-13.7c-3.8-8.5-17.3-8.9-21.3-17.4
						c-2-4-1.1-8.6-0.7-13c0.4-5.3,0.3-10.9-2.4-15.5c-2.5-4.6-7.9-8.1-13.1-6.8c-6.1,1.4-9.3,8.1-11.6,14.1
						c-1.5,3.9-2.9,7.8-4.5,11.7c-4.2,10.9-8.4,22.6-5.6,33.9c2.2,9.1,8.6,16.6,14.1,24.2c1,1.4,2.1,3.1,2,4.9
						c-0.3,2.8-3.1,4.5-5.9,5c-2.6,0.6-5.6,0.6-7.9,2.1c-2.8,2-4.3,5.3-3.9,8.6s1.7,6.4,3.8,9.1C1627.4,205,1636.2,216,1646.1,219.4
						z"/>
				</g>
				<g id="Group_275" transform="translate(29.153 48.185)">
					<g id="Group_274">
						<g id="Group_273">
							<path id="Path_635" class="st23" d="M1623.9,172.2c-0.1,0-0.4-18.1-0.4-40.5s0.1-40.5,0.4-40.5c0.1,0,0.4,18.1,0.4,40.5
								C1624.3,153.9,1624.2,172.2,1623.9,172.2z"/>
						</g>
					</g>
				</g>
				<g id="Group_278" transform="translate(29.001 61.407)">
					<g id="Group_277">
						<g id="Group_276">
							<path id="Path_636" class="st23" d="M1640.9,91.1c0,0.1-1.1,1.1-2.6,3.2s-3.6,4.9-6,7.9s-4.5,5.9-6.1,7.8
								c-0.8,1.1-1.7,2.1-2.6,3.1c0.7-1.2,1.4-2.4,2.2-3.5c1.4-2.1,3.6-4.9,6-7.9s4.5-5.9,6.1-7.8
								C1639.7,91.9,1640.9,91,1640.9,91.1z"/>
						</g>
					</g>
				</g>
				<g id="Group_281" transform="translate(16.471 102.784)">
					<g id="Group_280">
						<g id="Group_279">
							<path id="Path_637" class="st23" d="M1636.5,106.2c-0.1-0.2-0.2-0.5-0.3-0.7c-0.3-0.6-0.7-1.2-1.1-1.7
								c-1.3-1.4-2.8-3.3-4.7-5.3c-3.8-4.2-7-7.2-6.8-7.4c0.8,0.5,1.6,1.1,2.4,1.8c1.8,1.6,3.4,3.3,5,5.2c1.8,2.1,3.5,4,4.6,5.6
								c0.5,0.6,0.9,1.2,1.1,2C1636.6,105.8,1636.6,106,1636.5,106.2L1636.5,106.2z"/>
						</g>
					</g>
				</g>
				<g id="Group_284" transform="translate(17.59 46.095)">
					<g id="Group_283">
						<g id="Group_282">
							<path id="Path_638" class="st23" d="M1635.1,110c-0.1,0.1-3.1-4-6-9.3c-1.5-2.6-2.9-5-3.9-6.8c-1-1.7-1.7-2.8-1.7-2.8
								c0.8,0.7,1.5,1.6,2.1,2.5c1.5,2.2,2.9,4.4,4.2,6.7c1.4,2.5,2.8,4.9,3.9,6.8C1634.2,108.1,1634.7,109,1635.1,110L1635.1,110z"
								/>
						</g>
					</g>
				</g>
			</g>
		</g>
		<g id="Group_307" transform="translate(453.481 404.43)">
			<g id="Group_292">
				<g id="Group_287">
					<path id="Path_639" class="st13" d="M1640.1,185.4c6.5,2.2,14.5,1.7,19.2-3.3c4.9-5.2,6.1-12.9,2.9-19.4
						c-1.5-3.1-4-5.9-3.9-9.2c0.2-1.8,0.9-3.5,2-5c2-2.9,4.6-5.4,6.4-8.4c1.8-3.1,2.9-6.8,1.5-10c-2.8-6.3-12.7-6.5-15.6-12.8
						c-1.4-2.9-0.8-6.4-0.6-9.6c0.3-3.9,0.1-7.9-1.7-11.4c-1.8-3.3-5.9-5.9-9.6-5c-4.5,1-6.8,6-8.5,10.3c-1.1,2.9-2.2,5.7-3.3,8.6
						c-3.1,7.9-6.1,16.6-4,24.9c1.7,6.7,6.4,12.1,10.3,17.8c0.7,1.1,1.5,2.2,1.4,3.6c-0.1,2-2.2,3.3-4.3,3.8c-2,0.4-4.2,0.4-5.9,1.5
						c-2.1,1.3-3.1,3.9-2.9,6.4c0.3,2.4,1.2,4.8,2.8,6.7C1626.3,174.9,1632.7,182.9,1640.1,185.4z"/>
				</g>
				<g id="Group_288" transform="translate(21.608 35.411)">
					<path id="Path_640" class="st13" d="M1623.5,91.1v59.6"/>
				</g>
				<g id="Group_289" transform="translate(21.329 45.024)">
					<path id="Path_641" class="st13" d="M1623.5,107.4c3.2-4.3,6.5-8.5,9.8-12.8c0.9-1.2,1.9-2.4,2.9-3.5"/>
				</g>
				<g id="Group_290" transform="translate(11.995 75.396)">
					<path id="Path_642" class="st13" d="M1623.5,91.1c3,2.9,5.9,6,8.5,9.2c0.5,0.5,0.9,1.2,1,2"/>
				</g>
				<g id="Group_291" transform="translate(12.831 33.878)">
					<path id="Path_643" class="st13" d="M1623.5,91.1c2.6,3.6,5.7,9.9,8.5,13.9"/>
				</g>
			</g>
			<g id="Group_306" transform="translate(18.006 19.854)">
				<g id="Group_293">
					<path id="Path_644" class="st28" d="M1667.4,162.4c7.7-4.2,15.5-8.6,21-15.3c1.3-1.3,2.2-3,2.6-4.9s-0.3-3.8-1.8-5
						c-1.3-0.7-2.9-0.9-4.3-0.6c-3.4,0.4-6.7,1.2-9.9,2.5c4.5-4.6,8-10,10.4-15.9c0.7-1.8,1.3-4.2-0.3-5.3c-0.6-0.4-1.3-0.6-2-0.6
						c-8.4-1-15.9,5.3-21.3,11.7c2.3-11.3,3-22.9,2.1-34.4c-0.1-1.4-0.4-3.1-1.8-3.5c-0.9-0.1-1.7,0-2.5,0.4
						c-6.5,3.2-11.1,9.5-13.9,16.3s-3.8,14.1-4.7,21.3c-2.1-7.4-5.3-14.5-9.3-21c-0.2-0.4-0.5-0.7-0.8-1c-0.7-0.3-1.5,0.3-2.1,1
						c-5.3,6.1-6,15-4.7,23.1c1.4,9.2,5.1,17.9,10.7,25.4c2.1,2.8,5.3,8.1,12,8.1L1667.4,162.4z"/>
				</g>
				<g id="Group_296" transform="translate(22.271 18.189)">
					<g id="Group_295">
						<g id="Group_294">
							<path id="Path_645" class="st23" d="M1633.7,91.1c-0.2,0.8-0.4,1.5-0.7,2.2c-0.4,1.4-1.1,3.3-1.8,5.9
								c-2,6.5-3.5,13.1-4.7,19.8c-1.2,6.7-2,13.4-2.4,20.2c-0.1,2.6-0.3,4.7-0.3,6.1c0,0.7,0,1.5-0.1,2.2c-0.1-0.7-0.1-1.5-0.1-2.2
								v-6.1c0.3-6.8,1-13.6,2.2-20.3c1.2-6.7,2.9-13.3,5-19.8c0.8-2.5,1.5-4.5,2.1-5.9C1633.3,91.8,1633.5,91,1633.7,91.1
								L1633.7,91.1z"/>
						</g>
					</g>
				</g>
				<g id="Group_299" transform="translate(22.55 39.938)">
					<g id="Group_298">
						<g id="Group_297">
							<path id="Path_646" class="st23" d="M1649,91.1c-0.3,0.5-0.6,1-1,1.4c-0.8,1-1.8,2.2-2.9,3.6c-2.5,3.1-5.9,7.2-9.3,12.1
								s-6.5,9.3-8.8,12.5c-1,1.5-1.8,2.8-2.5,3.9c-0.3,0.5-0.6,1-1,1.4c0,0,0.3-0.6,0.7-1.5c0.6-1,1.4-2.4,2.4-4
								c2.1-3.3,5-7.9,8.6-12.7c3.6-4.9,7-9.1,9.6-12c1.3-1.5,2.4-2.6,3.1-3.5C1648.2,91.9,1648.6,91.5,1649,91.1L1649,91.1z"/>
						</g>
					</g>
				</g>
				<g id="Group_302" transform="translate(23.107 53.87)">
					<g id="Group_301">
						<g id="Group_300">
							<path id="Path_647" class="st23" d="M1656.3,91.1c0.1,0.1,0.1,0.3,0.1,0.4c0,0.4-0.2,0.8-0.4,1.1c-0.4,0.5-0.9,0.9-1.4,1.3
								c-0.6,0.5-1.3,1-2,1.4c-3.8,2.6-7.8,4.9-12,6.7c-4.2,1.8-8.3,3.8-12.3,6c-3.1,1.7-4.9,2.9-4.9,2.9s0.4-0.4,1.1-1
								c0.8-0.6,2-1.4,3.5-2.4c3.1-1.8,7.4-3.9,12.3-6.1c4.2-1.8,8.2-3.9,12-6.4c0.7-0.4,1.3-0.9,2-1.4c0.5-0.3,1-0.7,1.4-1.1
								C1656.4,91.8,1656.1,91.1,1656.3,91.1L1656.3,91.1z"/>
						</g>
					</g>
				</g>
				<g id="Group_305" transform="translate(8.478 39.241)">
					<g id="Group_304">
						<g id="Group_303">
							<path id="Path_648" class="st23" d="M1637.6,124.3c0,0-0.6,0-1.1-0.8s-1-2.1-1.7-3.5c-1.3-3.1-3.1-7.2-4.9-11.8
								s-3.5-8.9-4.6-12c-0.6-1.5-1-2.8-1.4-3.6c-0.2-0.4-0.4-0.9-0.4-1.4c0.3,0.4,0.5,0.8,0.7,1.3c0.6,1.2,1.1,2.4,1.5,3.6
								c1.3,3.1,3.1,7.2,4.9,11.8s3.5,8.9,4.6,12c0.6,1.5,1,2.8,1.4,3.6C1637,124,1637.6,124.1,1637.6,124.3z"/>
						</g>
					</g>
				</g>
			</g>
		</g>
	</g>
	<g id="Group_292_1_">
		<g id="Group_287_1_">
			<path id="Path_639_1_" class="st3" d="M25.5,747.8c7.2,2.4,15.9,1.8,21.1-3.7c5.4-5.7,6.7-14.2,3.2-21.2
				c-1.7-3.4-4.4-6.4-4.3-10.1c0.3-2,1-3.9,2.1-5.5c2.1-3.2,5-6,7-9.2c2-3.4,3.2-7.5,1.7-11c-3.1-6.9-13.9-7.2-17.1-14
				c-1.5-3.2-0.9-7-0.6-10.5c0.3-4.3,0.2-8.7-1.8-12.5c-2-3.7-6.4-6.4-10.5-5.5c-4.9,1.1-7.5,6.6-9.3,11.3c-1.2,3.2-2.4,6.3-3.7,9.5
				c-3.4,8.7-6.7,18.2-4.4,27.3c1.8,7.3,7,13.3,11.3,19.5c0.8,1.2,1.7,2.4,1.5,4c-0.2,2.1-2.4,3.7-4.7,4.1c-2.1,0.5-4.6,0.5-6.4,1.7
				c-2.3,1.4-3.4,4.3-3.2,7c0.3,2.7,1.4,5.2,3.1,7.3C10.4,736.2,17.4,745.1,25.5,747.8z"/>
		</g>
		<g id="Group_288_1_" transform="translate(21.608 35.411)">
			<path id="Path_640_1_" class="st3" d="M9.4,647.8v65.3"/>
		</g>
		<g id="Group_289_1_" transform="translate(21.329 45.024)">
			<path id="Path_641_1_" class="st3" d="M9.3,666.6c3.5-4.7,7.2-9.3,10.7-14c1-1.3,2.1-2.6,3.2-3.8"/>
		</g>
		<g id="Group_290_1_" transform="translate(11.995 75.396)">
			<path id="Path_642_1_" class="st3" d="M8.5,651.6c3.3,3.2,6.4,6.5,9.3,10.1c0.6,0.6,0.9,1.3,1.1,2.1"/>
		</g>
		<g id="Group_291_1_" transform="translate(12.831 33.878)">
			<path id="Path_643_1_" class="st3" d="M8.5,647.7c2.9,4,6.3,10.8,9.3,15.3"/>
		</g>
	</g>
	<g id="Group_293_1_">
		<path id="Path_644_1_" class="st29" d="M75.1,744.3c8.4-4.6,16.9-9.5,23-16.8c1.5-1.5,2.5-3.3,2.9-5.3c0.5-2.1-0.3-4.2-2-5.5
			c-1.4-0.8-3.1-1-4.7-0.6c-3.7,0.4-7.4,1.4-10.8,2.7c4.9-5,8.8-10.9,11.4-17.4c0.8-2,1.4-4.6-0.3-5.8c-0.6-0.4-1.4-0.6-2.1-0.6
			c-9.2-1.1-17.4,5.8-23.4,12.8c2.5-12.4,3.3-25.1,2.3-37.7c-0.2-1.5-0.5-3.4-2-3.8c-0.9-0.1-1.9,0-2.7,0.5
			c-7.2,3.5-12.2,10.4-15.3,17.9s-4.1,15.4-5.2,23.4c-2.3-8.1-5.8-15.9-10.2-23c-0.2-0.4-0.5-0.8-0.9-1.1c-0.8-0.3-1.7,0.3-2.3,1.1
			c-5.8,6.7-6.6,16.5-5.2,25.3c1.6,10.1,5.6,19.6,11.8,27.8c2.3,3.1,5.8,8.9,13.1,8.9L75.1,744.3z"/>
	</g>
	<g id="Group_296_1_" transform="translate(22.271 18.189)">
		<g id="Group_295_1_">
			<g id="Group_294_1_">
				<path id="Path_645_1_" class="st4" d="M40.3,667.9c-0.2,0.8-0.4,1.7-0.8,2.4c-0.5,1.5-1.2,3.7-2,6.4c-2.2,7.1-3.9,14.4-5.2,21.7
					s-2.2,14.7-2.6,22.1c-0.2,2.9-0.3,5.2-0.3,6.7c0,0.8,0,1.6-0.2,2.4c-0.1-0.8-0.2-1.6-0.2-2.4v-6.7c0.3-7.5,1.1-14.9,2.4-22.3
					c1.3-7.3,3.1-14.6,5.5-21.7c0.9-2.7,1.7-4.9,2.3-6.4C39.8,668.7,40.1,667.8,40.3,667.9L40.3,667.9z"/>
			</g>
		</g>
	</g>
	<g id="Group_299_1_" transform="translate(22.55 39.938)">
		<g id="Group_298_1_">
			<g id="Group_297_1_">
				<path id="Path_646_1_" class="st4" d="M57.1,670c-0.3,0.5-0.7,1.1-1.1,1.5c-0.9,1.1-2,2.4-3.2,4c-2.7,3.4-6.4,7.9-10.2,13.3
					c-3.8,5.3-7.2,10.2-9.6,13.7c-1.1,1.7-2,3.1-2.7,4.3c-0.3,0.5-0.7,1.1-1.1,1.5c0,0,0.3-0.6,0.8-1.7c0.6-1.1,1.5-2.6,2.6-4.4
					c2.3-3.7,5.5-8.7,9.5-13.9c4-5.3,7.6-9.9,10.5-13.1c1.4-1.7,2.6-2.9,3.4-3.8C56.2,670.9,56.6,670.4,57.1,670L57.1,670z"/>
			</g>
		</g>
	</g>
	<g id="Group_302_1_" transform="translate(23.107 53.87)">
		<g id="Group_301_1_">
			<g id="Group_300_1_">
				<path id="Path_647_1_" class="st4" d="M65.1,671.3c0.1,0.1,0.2,0.3,0.2,0.5c0,0.4-0.2,0.9-0.5,1.2c-0.4,0.5-1,1-1.5,1.4
					c-0.7,0.6-1.4,1.1-2.1,1.5c-4.1,2.9-8.5,5.3-13.1,7.3c-4.6,1.9-9.1,4.1-13.4,6.6c-3.4,1.8-5.3,3.2-5.3,3.2s0.5-0.5,1.2-1.1
					c0.9-0.6,2.1-1.5,3.8-2.6c3.4-2,8.1-4.3,13.4-6.7c4.6-2,9-4.3,13.1-7c0.7-0.5,1.5-1,2.1-1.5c0.6-0.3,1.1-0.7,1.5-1.2
					C65.3,672.1,65,671.3,65.1,671.3L65.1,671.3z"/>
			</g>
		</g>
	</g>
	<g id="Group_305_1_" transform="translate(8.478 39.241)">
		<g id="Group_304_1_">
			<g id="Group_303_1_">
				<path id="Path_648_1_" class="st4" d="M43.3,706.3c0,0-0.6,0-1.2-0.9c-0.6-0.9-1.1-2.3-1.8-3.8c-1.4-3.4-3.4-7.9-5.3-13
					s-3.8-9.8-5-13.1c-0.6-1.7-1.1-3.1-1.5-4c-0.3-0.5-0.4-1-0.5-1.5c0.3,0.4,0.5,0.9,0.8,1.4c0.6,1.3,1.2,2.6,1.7,4
					c1.4,3.4,3.4,7.9,5.3,13c2,5,3.8,9.8,5,13.1c0.6,1.7,1.1,3.1,1.5,4C42.6,706,43.3,706.1,43.3,706.3z"/>
			</g>
		</g>
	</g>
</g>
<g id="Layer_2_1_">
	<path class="st30" d="M874,582.4c-0.9,2.7,10.4,79.5,10.4,79.5l-3.1,19.9l5,67.2l-4.9,15.3h15.1l0.6-4.5l-2.6-10.9l4.1-66L899,661
		l1.8-78.6H874z"/>
	<path class="st29" d="M873.3,582.4c-0.9,2.7,10,79.4,10,79.4l-1.1,5.1c4.6,1.6,10.4,2.3,17,0.7l0.3-6.6l1.8-78.6L873.3,582.4z"/>
	<path class="st30" d="M928.9,580.1c0.7,2.7-9.2,79.3-8.8,79.3l4.1,21l-5.4,67.7l4,14L908,763l2.8-15l-4.2-66.4l-0.7-22.1l-3.6-79.3
		L928.9,580.1z"/>
	<path class="st29" d="M929.1,590.9c-2.1,21.6-8.2,68.8-8.2,68.8l1.6,7c-4.7,1.4-11.3,2.2-16.9,1l-0.4-7.4l-3.6-80l28.1,0.2
		L929.1,590.9z"/>
	<path class="st30" d="M944.4,515.3c6.8,10.2,15,29.4,19.2,38.7c2.3,2.5,4.4,4.5,6.7,7.8c0.5,2.4,1.1,7.4,1.1,7.4l-1.1,1.4l-0.4,1.9
		l-0.9,0.6l-2.4-4.6l0.7,2.4l0.9,4.3l-1.4,0.4c-0.3-0.9-1.4-3-2.1-5.5c-1-2.1-2.8-5.2-3.2-5.8c-0.1,0.2-0.6,1.4-0.7,1.7
		c0,0.9,0,2.5-0.1,3.6c-0.4,0-0.6,0-1,0c-0.3-0.4-1.2-3.9-1.7-6c0.1-1.5-0.2-5.5-0.1-6.2c-6.7-12.6-14.8-21.8-21.9-34.4
		C937,518.9,941.1,516.3,944.4,515.3z"/>
	<path class="st31" d="M919.9,521.7c0,2.6,1.6,7.2,2.7,10.8c1.9,6.2,3.7,11.7,4.7,16.4c1.3,6.4,2.6,16.4,3.2,21.1
		c2.2,17.9,1.8,23,1.8,23c-25.7,5.6-37.5,6.1-61.5,0.8c1.5-25.3,3.1-37.8,5.5-50.3c1.1-5.7,4-14.7,4.7-19.7c0.6-4.2,0.2-10-0.2-13.7
		c-0.7-6.2-4.5-32.2-4.4-33c1.9-19.4,2.2-24.5,4.2-27.7l15.4-6.5l11.7-0.5l18.8,7.4c3,3.6,0.6,27.8-0.2,32.5
		C923.7,496.3,921.1,508.9,919.9,521.7z"/>
	<path class="st31" d="M952.2,528.4c-2-3.9-4.9-10.5-7.6-15.6c-3.1-18.5-11.3-51.1-15.1-61.2c-3-1.7-3.8-1.8-8.2-3.3
		c-0.9,8.7,0.3,22.3,2.6,29.2c2.4,11.5,3.2,24.5,6.7,35.5c3.1,7.3,9.7,17.3,12.1,20.8C944.8,530.3,948.5,528.9,952.2,528.4z"/>
	
		<linearGradient id="SVGID_1_" gradientUnits="userSpaceOnUse" x1="900.808" y1="781.0106" x2="903.2418" y2="819.2849" gradientTransform="matrix(1 0 0 1 0 -348.0001)">
		<stop  offset="0" style="stop-color:#723324"/>
		<stop  offset="0.96" style="stop-color:#B27B37"/>
		<stop  offset="1" style="stop-color:#B27B37"/>
	</linearGradient>
	<path class="st32" d="M905.1,427l2.5,15.6l4,1.6c-2,6.2-4.9,13.9-7.6,20c-2.9,0.3-8,0.3-10.1,0.1c-1-5.7-2.1-14.6-2.4-19.6l4-1.6
		l1.7-14.9L905.1,427z"/>
	<polygon class="st33" points="886.2,499 883.1,497.1 908.8,498.2 903.6,500 	"/>
	<path class="st30" d="M869.7,514.8c-10.5,15.9-24.2,28.6-38.3,41.1c-0.9,0.2-5.9,0.9-7.9,1.3l-2.1-1.4l-1.7-0.4
		c-0.5-0.6-1.1-1.8-1.2-2.1c0.5-1.8,3.5-6.7,3.5-6.7l11.5-0.5c8-7.7,17.6-24.8,24.2-33.5C862.7,509.1,867.5,513,869.7,514.8z"/>
	<path class="st31" d="M850.4,522.4c3.4,1.1,7.1,3.7,8.9,7.3c4.2-4.8,8.3-9.8,12.1-15.3l16.1-37.3c1-6-0.5-26.9-7-27.3
		c-0.7,0.6-1.2,1.8-1.6,2.7c-6,14.4-14.1,41-17.8,52.9L850.4,522.4z"/>
	<path class="st34" d="M879.4,466.9l1.5,2.2c-1.1,3.7-3,10.9-4.4,14.7C876.3,478.9,878.3,471.7,879.4,466.9z"/>
	<path class="st34" d="M878.9,497.2l0.4-3.7c-0.9-2.4-1.4-4.5-2.3-7C876.5,489.5,878.1,494.2,878.9,497.2z"/>
	<path class="st35" d="M893.8,464.2c3.4,0,6.8-0.1,10.2-0.1c-2.5,5.4-5,10.8-7.5,16.3C895.6,475,894.7,469.6,893.8,464.2z"/>
	<polygon class="st36" points="912.2,761 909.1,756.7 907.5,762 908.1,765.9 923.6,765.9 923.8,762.1 922.1,758.9 920.4,761 	"/>
	<polygon class="st36" points="892.1,760.9 885,760.9 882.9,759.2 881,762.7 881.5,765.9 897.8,765.9 897.9,762.3 896.6,757.3 	"/>
	
		<linearGradient id="SVGID_2_" gradientUnits="userSpaceOnUse" x1="900.0441" y1="774.039" x2="900.8513" y2="739.6103" gradientTransform="matrix(1 0 0 1 0 -348.0001)">
		<stop  offset="0" style="stop-color:#8B5321"/>
		<stop  offset="1" style="stop-color:#9F6C39"/>
	</linearGradient>
	<path class="st37" d="M873.7,408.8c0.5,5.5,4,9,8.5,13.6c3.3,3.4,5.4,5.8,9,8.1c2.6,1.7,6.1,4,9.4,3.7c3-0.3,6.2-1.5,9.2-3.2
		c4.5-2.6,8.6-6.3,11.2-9.6c3.4-4.3,6.4-9.3,6.4-14.9c0.1-14.9-11.3-25.2-25.6-25.3C887.6,381.1,872.4,394,873.7,408.8z"/>
	<path class="st38" d="M907.8,416.7c-0.3,1.4-1,4.1-3,6.4c-2.4,2.9-6.4,3.4-9.3,1.1c-2.8-2.2-3.7-7-3.7-7
		C897.7,419.3,902.9,418.7,907.8,416.7z"/>
	<path class="st39" d="M908.3,416.4c-5.4,2.5-11.3,2.9-16.7,0.6c0.7,1.6,1.3,2.8,3.3,4.4c2.4,1.9,5.6,1.7,8.2,0.4
		C905.3,420.7,906.9,418.7,908.3,416.4z"/>
	<path class="st40" d="M906.4,417.1c-7.5,1.9-9.8,1.2-13.6,0.4c0.8,2.5,3.5,3.6,6,3.6C902,421.1,904.8,419.9,906.4,417.1z"/>
	<path class="st40" d="M904.7,405.1c2.4,0.1,4.2,0.1,6-0.1c1.4-0.1,3-0.5,4.8-1.1c-0.5-1.7-2.4-3.8-4.7-4.2
		C908.4,399.3,904.9,400.5,904.7,405.1z"/>
	
		<linearGradient id="SVGID_3_" gradientUnits="userSpaceOnUse" x1="909.4041" y1="753.9358" x2="910.6385" y2="747.5455" gradientTransform="matrix(1 0 0 1 0 -348.0001)">
		<stop  offset="0" style="stop-color:#17365A"/>
		<stop  offset="0.26" style="stop-color:#17365A"/>
		<stop  offset="1" style="stop-color:#8A8F82"/>
	</linearGradient>
	<path class="st41" d="M912.8,404.7c-1.5,0.3-3.6,0.6-5,0.5c-0.9-0.4-1.8-3.1-0.4-4.4c1-0.9,3.9-1.2,5.3,0
		C913.5,401.5,913.7,403.6,912.8,404.7z"/>
	<path class="st42" d="M915.9,404.4c-0.2-1-1.1-2.9-2.8-4c-1.6-1-4.1-1-5.8-0.2c-1.3,0.6-2.2,1.8-2.2,2.9c0.3-0.4,0.7-0.8,1.2-1.1
		c1.9-1.2,4.6-1.4,6.6-0.4C914,402.3,914.9,403.3,915.9,404.4z"/>
	<path class="st40" d="M895,405c-2.3,0-4.1-0.1-5.5-0.3c-1.5-0.2-3-0.7-4.2-1.5c1.9-4.8,6.8-4.6,8.9-1.6
		C894.8,402.4,895.1,403.6,895,405z"/>
	
		<linearGradient id="SVGID_4_" gradientUnits="userSpaceOnUse" x1="888.9129" y1="752.5863" x2="892.5225" y2="748.4611" gradientTransform="matrix(1 0 0 1 0 -348.0001)">
		<stop  offset="0" style="stop-color:#17365A"/>
		<stop  offset="0.26" style="stop-color:#17365A"/>
		<stop  offset="1" style="stop-color:#8A8F82"/>
	</linearGradient>
	<path class="st43" d="M887.9,404.4c1.6,0.4,3.9,0.6,5,0.6c0.6-0.7,1.6-2.8,0.5-4.4c-1.2-0.6-3-1.2-4.3-0.8
		C887.4,400.5,887,403.1,887.9,404.4z"/>
	<path class="st42" d="M884.9,403.9c1.7-2.2,3.4-3,5.5-2.9c1.9,0.1,3.5,0.7,4.6,2.3c-0.1-2-2.1-3.3-4.2-3.5
		C888.4,399.6,885.8,400.7,884.9,403.9z"/>
	<path class="st42" d="M909.7,366.6c0,0-7.3,4.3-9.5,4.8s0.7,8.5,1.4,10.1c0.5,1.1,5.1,4.5,5.1,4.5l-0.3,3.9l3.9,5.3l5.5,2.2
		l1.3,5.1l5.1,3.7c0,0,1.7,4.1,1.7,5.1c0.2,4.1-3.5,10.3-8,15.2c0.7,0.5,3.6,1.2,5.2,1.7c1.5-0.3,3.4-1.1,4.7-1.7
		c1,0.1,4.9,0.4,6,0.5c3.3-0.7,5.6-3.3,7.1-6.3c-0.4-1-0.3-2.3,0.3-3.4c1.6-2.8,5.5-5.5,4.3-7.9c-2.5-4.9-0.7-8.2-0.6-11.9
		c-4.3-5.1-1.9-8.1-2.9-10.3c-1.8-4.1-6.7-5.5-8.3-6.5c-3.7-2.5-2.6-4.4-4.9-6.7c-2.3-2.3-8.1-1.9-9.9-3.2
		C915.3,366.3,909.7,366.6,909.7,366.6z"/>
	<path class="st42" d="M900.4,369.3c1.4,0.5,3,1,4.4,0.9c2.3-0.3-0.7,11.2-2.5,10.9c-2.8,0.6-9.2,4.1-9.2,4.1l-2.2,5.2
		c0,0-6.1,3.9-7.1,7.9c-0.4,1.7-0.6,3.4-0.8,4.7c-0.8,4.1-1.7,5.2-2.1,7.1c-1.1,5.2,0.7,8.7,2,11.1c0.7,1.3,3.3,4.8,6.1,7.6
		c-0.3,0.3-2,0.9-3.8,0.6c-1.1-0.2-2.9-1.5-3.7-1.5c-2.7,0.2-3.1,0.5-3.6,0.1c-0.6-0.4-4-1.3-6.8-3.8c-0.8-5.3-4-5.2-4.5-7.4
		c-1.2-5.5-0.6-2.6,0.4-6.6c0.1-3.1-3.2-6.7-0.9-10.3c6.1-6.6,1.1-7.8,3.3-10.3s4.7-2.8,5.5-4.6c0.9-1.9,1-6.7,3.4-9
		c1.3-0.8,5.1-1.1,7-2.1c2.4-1.3,3.1-2.6,4.3-4.2c1-1.3,2.6-2,4-2.1C896.2,367.5,897.2,368.1,900.4,369.3z"/>
	
		<linearGradient id="SVGID_5_" gradientUnits="userSpaceOnUse" x1="898.9659" y1="757.9526" x2="899.5491" y2="751.3511" gradientTransform="matrix(1 0 0 1 0 -348.0001)">
		<stop  offset="0" style="stop-color:#804A0D"/>
		<stop  offset="0.82" style="stop-color:#976230"/>
		<stop  offset="1" style="stop-color:#976230"/>
	</linearGradient>
	<path class="st44" d="M898.2,402.5c-0.2,3.9-1.7,5.5-2.9,6.8c-0.9,0.9-0.7,2.7,1.6,3.3c2.3,0.6,5.1-0.4,5.1-0.4
		c1.7-0.9,1.1-2.4-0.3-3.2c-0.8-1.2-0.7-3.8-1-5.3C900.1,403.3,899.1,402.9,898.2,402.5z"/>
	<path class="st42" d="M914.3,396.2c0,0-4.1-4.1-8.1-2.2c-3,1.4-2.4,1.7-2.4,1.7s3.4-0.1,4.5-0.2
		C911.2,395.4,914.3,396.2,914.3,396.2z"/>
	<path class="st42" d="M886,396.9c0,0,4-4.2,8-2.5c3.1,1.3,2.5,1.6,2.5,1.6s-3.4,0-4.5,0C889.1,396,886,396.9,886,396.9z"/>
	<path class="st42" d="M902,380.7l0.3,2.4l1.5,3.9l-0.6,4.1c0.1,0.5,1,1.9,2,1.6c-0.6,0.1-1.3-1.2-1.5-1.9l1.2-3.9l-1.1-3.9
		l-0.2-2.8L902,380.7z"/>
	<polygon class="st45" points="939,416.7 939.4,416.3 935.3,409 929.1,404.7 924.2,392.2 916.4,387.5 911.8,379.5 907.5,375.7 
		904.6,369.7 904,369.9 907,376 911.3,379.8 916.1,388 923.7,392.5 928.6,405.1 934.9,409.4 	"/>
	<polygon class="st45" points="933.6,425.6 934,425.2 929.7,420.5 928.2,412.2 923.3,406.5 922.9,406.9 927.7,412.5 929.2,420.9 	
		"/>
	<polygon class="st45" points="875.1,426.5 877.3,420.5 876.7,411.9 881.4,406.1 880.9,405.7 876,411.7 876.7,420.5 874.5,426.3 	
		"/>
	<polygon class="st45" points="869.4,419.3 872.2,406.8 878.5,400.3 881.9,389.8 885.7,386.6 887,379.8 891.5,377.3 894.2,371 
		896.6,368.9 896.1,368.7 893.7,370.9 891,377 886.5,379.5 885.1,386.5 881.3,389.6 877.9,400 871.7,406.6 868.8,419.1 	"/>
	<polygon class="st45" points="942,401.7 942.3,401.2 934.8,397.3 928,385.5 920.2,382.3 916.8,375.5 909.1,367.5 908.6,367.9 
		916.4,375.9 919.8,382.8 927.5,385.9 934.4,397.7 	"/>
	<polygon class="st45" points="901.5,381.2 900.2,376.4 901.5,370.6 900.9,370.5 899.6,376.3 900.8,380.9 	"/>
	<path class="st45" d="M866.8,407.3l0.6-0.1c0-0.5,1.9-5.6,3-8.7l6.9-8.7l3.1-13.2l-0.6-0.1l-3.1,13.1l-6.9,8.8
		C869.2,400.2,866.8,406.7,866.8,407.3z"/>
	<path class="st38" d="M892.2,417.2c1.6,0.7,4,1.6,6.8,1.5s6.5-1.3,8.2-1.9c-1.8-0.5-4.9-0.9-6.4-0.8c-1.4,0.4-2.2,0.4-3.6,0.2
		C895.5,416.3,893.3,417,892.2,417.2z"/>
	<path class="st46" d="M905.1,402.4c0.8-1.3,2.1-2,3.4-2.3c3.7-0.7,5.6,1.3,6.3,2.1c-0.4-1.9-3-3.9-6-3.4
		C906.9,399.1,905.5,400.3,905.1,402.4z"/>
	<path class="st46" d="M894.9,402.8c-0.6-1.4-1.7-2.3-2.9-2.7c-3.3-1-5.3,0.8-6.1,1.6c0.6-1.9,3.2-3.7,5.9-3
		C893.7,399.3,894.7,400.7,894.9,402.8z"/>
	<path class="st47" d="M75.3,760.1c1.3-0.8,3.6-1.1,4.7-2l8.6,2l0.4,3.3v2.3H73C73.4,763.8,73.5,761.9,75.3,760.1z"/>
	<path class="st47" d="M155.5,765.8h-21.8c-0.8-1.9-0.7-3.8,0-6.2l8.7-1.6l5.7,1.7c0,0,4.3-0.2,5.8,0.6c1.2,1.1,1.4,3.2,1.5,4.2
		L155.5,765.8z"/>
	<polygon class="st48" points="74.3,552.3 75.1,597.6 75.1,659.7 73.1,684.2 78.2,758.9 89.3,761.3 94.7,661.4 101.2,581.9 
		106.6,583.3 121.2,662.2 121.2,686.7 133,760.7 143.5,758.5 141,660.6 132.4,577.3 131,555.4 	"/>
	<path class="st49" d="M53.1,450.1c1.4-4.1,2.5-7.4,4.7-10.1c2.5-3,10.9-6,19.4-8.8c8.2-2.7,16.4-5.3,20.5-6.6
		c8.3,2.8,28.5,9.1,35.5,13.7c4.4,3.5,8,14.1,10.1,22.3c2.6,10.2,4.5,20.6,4,20.4c-6-2.1-14.6-5.8-15.6-5.3c0.9,25-2.4,31,1.7,67.7
		c0.4,3.4,1,9.9,1.1,13.7c0.4,11.4-19.3,10.8-37,9.9c-11.8-0.6-20.8-1.8-25.9-6.6c-3.7-2.2-0.7-9.1-0.6-11.9
		c1.4-37.7-0.7-47.5-1.9-62.7c-3.1,4.8-7.2,32.3-9,40.1c-5.3-0.1-12-2-14.7-5.9C38.9,512.3,47,468.2,53.1,450.1z"/>
	<path class="st50" d="M111.9,429.4l-14.1-4.8l-13.2,4.3c2.7,8.8,8,16.5,14.1,21.7C106.5,445.4,110.5,433.7,111.9,429.4z"/>
	<path class="st49" d="M146.9,476.9c0,0,4.8,23,2.8,41.1c-0.3,1.7-4.7,6-6.8,6.4c-7.6,1.5-26.1-2.2-26.1-2.2l-3-9.5l12.2-6l0.9-35.5
		L146.9,476.9z"/>
	<path class="st40" d="M121.9,536.7c-0.7-1.1-1.8-1.8-2.6-2.6c-1.3-0.2-2.1,0-3,0.3c-2.3,0.7-5,1.3-7.7,4.1l1.3,1.3
		c0,0,7.5,3.3,10.9,0.8C121.8,539.7,122.3,538,121.9,536.7z"/>
	<path class="st40" d="M112.1,545.8c-0.3-1.1-1.2-2.7-2.3-3.5c-1.9,0.1-4.8,0.1-7.3,0.9l-4.4,2.1l0.2,2.4c0,0,5.5,4,11.5,1.4
		C111.9,548.4,112.2,547.2,112.1,545.8z"/>
	<path class="st51" d="M104.7,548.9c1.5,0.1,3.7,0.2,5.1-0.3c0.4-0.1,1.4-0.5,2.2-1.2c-0.2,0.5-0.5,1.6-2,2.4
		c-5.7,2.9-11.7-1.7-11.7-1.7l-0.3-1.7C98.1,546.3,101.7,548.6,104.7,548.9z"/>
	<path class="st52" d="M108.5,542.6c0,0-4.1,1.4-5,4.1c-0.5-0.2-1.7-0.8-1.7-0.8s0.9-1.8,2.7-2.5
		C105.2,543.3,108.5,542.6,108.5,542.6z"/>
	<path class="st51" d="M115,540.4c1.5,0.2,3.8,0.1,5.2-0.4c0.4-0.1,1.2-0.7,1.5-0.9c-0.2,0.5-0.7,1.2-1.2,1.5
		c-4.1,2.9-12-0.7-12-0.7l-0.1-1.5c0,0,0.1-0.2,0.3-0.4C110.3,539.5,112.9,540.1,115,540.4z"/>
	<path class="st52" d="M118.5,534c0,0-3.9,1.6-4.6,4.6c-0.5-0.1-2-0.5-2-0.5s0.7-2.2,3-3.5C115.5,534.2,118.5,534,118.5,534z"/>
	<path class="st53" d="M63.9,518L63.9,518l35.2-6.1c0.3-0.1,1.3-1.3,1-2.3c-0.1-0.3-0.8,1.1-1.2,1.2l-35.2,6
		c-0.3,0.1-0.5,0.4-0.4,0.7C63.4,517.9,63.6,518,63.9,518z"/>
	<path class="st54" d="M74.8,502.1c0.3,2,26.2,14.1,26.2,14.1l2.1,5.6l6,18c0,0,3.1-2.6,5.3-4c2.1-1.4,4.6-1.8,4.6-1.8l-2.6-8.4
		c0,0-3.2-12.3-5.4-15.2c-4-5.5-19-12.3-19-12.3l-3.1-7.3L74.8,502.1z"/>
	<path class="st55" d="M64.3,512.9c1,1.1,19.1,7.3,19.1,7.3l9.8,3.6l5.2,23.2c0,0,3.5-2.2,5.1-2.8c2.2-0.8,3.8-1.7,6.9-1.7
		c0,0-1.6-3.5-2-4.8c-1.5-5.7-2.3-17.7-5.7-22.7c-2.9-4.3-17.5-10.1-17.5-10.1l3.2-11.8l-27.8,6.5C60.4,499.6,61.1,509.4,64.3,512.9
		z"/>
	<path class="st56" d="M84.8,453.6l1.3,12.8L87,471l1.4,10.4l2.3,9.4l0.8,5.8c0,0-4.9,2.1-9.4,3c-12.8,2.4-22.3,0.5-22.3,0.5
		s-0.3-1-0.7-4.8c-0.7-7.8-0.6-20.8-0.6-20.8l0.4-11.1l0.9-10.1c0.8-0.4,1.6-0.8,2.4-1.2l2.6-1.3l6.9-2.9L84.8,453.6z"/>
	<path class="st56" d="M86.1,468.5c-0.1-3.3-1-9.3-1-9.7c-0.7-5-0.8-4.7-1.1-5.6c1.1,0.5,3.7,1.9,4.9,3.3c1.4,1.7,3,4.7,3.5,9.3
		C90.6,466.8,88,467.6,86.1,468.5z"/>
	
		<linearGradient id="SVGID_6_" gradientUnits="userSpaceOnUse" x1="71.6791" y1="789.4144" x2="71.1084" y2="799.9015" gradientTransform="matrix(1 0 0 1 0 -348.0001)">
		<stop  offset="0" style="stop-color:#723B27"/>
		<stop  offset="1" style="stop-color:#8E573A"/>
	</linearGradient>
	<path class="st57" d="M76.6,450.1c0.2,1.6-0.9,3.8-2.9,4.4c-3.4,1-6.2-2.1-6.4-3.6c0-2.3,0-2.3-0.7-14.8l8.1,0.2
		c0,0,0.5,4.8,1.1,8.4C75.9,446.5,76.4,448.6,76.6,450.1z"/>
	<path class="st58" d="M92.2,465.8c0,0,1,11.5,2.5,17.4c1.6,3.8,3.1,8,4.9,10.4c0.4,0.5,4,0.4,4.3,0.7c1,1.2-1.4,2-1.4,2l3.3,3.3
		l-0.6,1.4l-2-0.6l0.7,1.4l-1.3,1.3c0,0-4.1-1.5-5.6-2.6c-0.9-0.7-1.1-2-1.6-2.5c-2.1-3.3-4-6.9-5.5-9.6c-2.1-7.8-3.5-20.2-3.5-20.2
		L92.2,465.8z"/>
	<path class="st59" d="M90.8,521.6c0,0-1.3,5.3-1,9.7c-12.7-0.2-32.7-4.3-39-8.6c-2.2-4.5-1.9-11,0.5-13.5c1.8-1.9,4.5-2.9,8-2
		c5.5,3,8.7,6.3,19.9,10.9C83.8,520,88.3,521.3,90.8,521.6z"/>
	<polygon class="st59" points="79.2,513.5 79.8,515 81.5,514.4 82.8,514.5 81.7,515.9 80.6,517.4 82.3,519.1 85.4,518.3 99.5,519.4 
		100.5,510.3 87.7,506.7 81.8,508.4 77.7,511.4 78.6,512.3 81.8,511.2 84.2,511 81.7,511.9 	"/>
	<path class="st59" d="M139.6,509c-14,1.1-24.2,2.2-40.2,0.9l-0.9,9.3c11.7,2.1,32.4,6.3,43,5.5C146,521.7,145.6,510.4,139.6,509z"
		/>
	<path class="st59" d="M92.5,521.3c-1.4,0.3-2.3,0.3-3.5,0c-0.7,3-0.5,6.4-0.4,9.9c4.6,0.5,14.9,1.1,18.9,0.1l0.9-5.9l1.5-2.4
		l-1.3-2.3l-7.1,0.3l-3.3-1.8L92.5,521.3z"/>
	
		<linearGradient id="SVGID_7_" gradientUnits="userSpaceOnUse" x1="98.6915" y1="764.5525" x2="97.2911" y2="777.8574" gradientTransform="matrix(1 0 0 1 0 -348.0001)">
		<stop  offset="0" style="stop-color:#723B27"/>
		<stop  offset="1" style="stop-color:#8E573A"/>
	</linearGradient>
	<path class="st60" d="M89.4,409.4L89.1,429c2.4,3,7.8,5.2,11.6,4.9c4.8-0.3,6.8-4.9,6.8-4.9l-0.6-23.8L89.4,409.4z"/>
	
		<linearGradient id="SVGID_8_" gradientUnits="userSpaceOnUse" x1="98.43" y1="715.4063" x2="101.5871" y2="765.6393" gradientTransform="matrix(1 0 0 1 0 -348.0001)">
		<stop  offset="0" style="stop-color:#875526"/>
		<stop  offset="1" style="stop-color:#8E573A"/>
	</linearGradient>
	<path class="st61" d="M120.2,392.9c-1.2,11.4-1.3,9.9-1.8,13.9c-2.9,6.4-11.6,15.8-16.9,15.5c-7.3-0.5-15.4-8.9-19-11.6
		c-3.6-5.3-2.7-5.8-5.2-23.4c-1.8-12.6-1.3-22.2,2.6-29.5c4.5-8.4,12.5-7.5,20.8-7.4c7.3,0.1,12.5-2.3,17.3,6.1
		C123.4,366,121.3,382.7,120.2,392.9z"/>
	<path class="st62" d="M109.5,399l-0.2,2.7c0,0-1.1,6.6-4.5,8.1c-6.5,2.9-10.6-0.8-12.1-3.6c-0.7-1.3-2.2-7.2-2.2-7.2l9,5L109.5,399
		z"/>
	<path class="st62" d="M108.5,401.8l-0.2-2.3c0,0-4.6-1.4-8.3-1c-6.7,0.8-8.4,1-8.4,1l4.9,4.9L108.5,401.8z"/>
	<path class="st42" d="M76,380.9c0,0-1.9-12.9-2.7-19.3c-0.4-3.1,0.6-4.5,3.2-7c1.3-1.3,6.2-4.5,9.7-6.5c5.3-3,18.2-4.7,27.1,0.7
		c2,1.2,5.5,3.4,6.8,5.5c1.6,2.7,1.6,2.3,2,4.5c0.7,4.5-0.8,20.4-0.8,20.4l-0.9,0.6c0,0-0.6-16.9-3-19c-3.8-3.5-9.3-3.4-15.4-1.6
		c-4.7-1.3-15.2-5.2-23.1,3.9c-2.2,5.6,0.4,18.2,0.4,18.2L76,380.9z"/>
	<path class="st4" d="M90.4,399c0,0,10.3,5.9,19.1-0.1c-1.1,4.8-4.9,9.3-9.3,8.3C93,405.5,90.4,399,90.4,399z"/>
	<g>
		<path class="st4" d="M94.6,382.8c0,0.6-0.1,1-0.3,1.3c-1-0.5-2.5-0.8-4.3-0.6c-1.3,0.1-2.5,0.4-3.5,0.8c-0.3-0.2-0.8-0.8-1-1.6
			c-0.6-2.8,2.1-4.5,4.6-4.4C92.7,378.2,94.7,380.3,94.6,382.8z"/>
		<path class="st63" d="M92.4,382.1c0,0.5-0.2,0.9-0.4,1.3c-0.6-0.1-1.2-0.1-1.9,0c-0.6,0-1.2,0.1-1.7,0.2c-0.4-0.4-0.6-1-0.6-1.6
			c0-1.3,1.1-2.3,2.4-2.3C91.4,379.7,92.4,380.8,92.4,382.1z"/>
	</g>
	<path class="st64" d="M84.3,381.4c1-2,3.4-3.1,5.4-3.3c2.1-0.2,4.7,0.5,5.8,2.4C91.8,380.1,88,380.5,84.3,381.4z"/>
	<g>
		<path class="st4" d="M105.6,381.8c0,0.5,0.2,1.3,0.6,1.8c1.1-0.6,2.9-0.8,5.2-0.5c1,0.1,1.8,0.4,2.4,0.6c0.5-0.3,0.8-0.8,0.9-1.7
			c0.1-2.2-2.3-2.9-4.6-3C107.7,378.9,105.6,379.4,105.6,381.8z"/>
		<path class="st63" d="M107.9,382c0.1,0.3,0.2,0.7,0.4,0.9c0.9-0.1,1.9-0.1,3.1,0.1c0.2,0,0.5,0.1,0.7,0.1c0.4-0.5,0.7-1.2,0.5-1.9
			c-0.2-1.3-1.4-2.2-2.7-2C108.6,379.5,107.7,380.7,107.9,382z"/>
	</g>
	
		<linearGradient id="SVGID_9_" gradientUnits="userSpaceOnUse" x1="99.1824" y1="729.6188" x2="101.5427" y2="741.7275" gradientTransform="matrix(1 0 0 1 0 -348.0001)">
		<stop  offset="0" style="stop-color:#89562B"/>
		<stop  offset="1" style="stop-color:#713A21"/>
	</linearGradient>
	<path class="st65" d="M102.3,379.2c0,0-0.4,4.2,1.5,8.8c1.1,1.6,2.3,1.6,3.5,3.9c0.2,2.6-5.7,4.2-5.7,4.2s-5.5-1.1-6.2-3
		c-0.6-1.7,1.8-3.2,2.4-4.7c0.8-1.8,0.6-9.7,0.6-9.7l3.6-0.9L102.3,379.2z"/>
	<path class="st64" d="M82.9,373.6c0,0,8.6-3.6,10.5-4c0.8,1.8,1.2,5.6,1.2,5.6c-0.5-0.1-7.8,0.3-10.4,1.8
		C83.7,376.2,83.1,374.8,82.9,373.6z"/>
	<path class="st64" d="M116.4,374.4c0,0-7.1-3.3-8.7-3.6c-0.3,1-1.1,4.7-1.1,4.7s7.3,0.7,8.7,1.7C116,376.4,116.3,375.1,116.4,374.4
		z"/>
	<path class="st66" d="M81.4,384.2c0.1,2.5-0.7,5.7-3,5.9c-2.3,0.1-5.1-3-5.2-5.4c-0.1-2.5,1.5-4.9,3.8-5
		C79.2,379.5,81.3,381.7,81.4,384.2z"/>
	<path class="st66" d="M117.6,384.5c0.2,2.5,0.7,5.2,3,5c2.3-0.2,4.6-3.6,4.4-6.1c-0.2-2.5-2.2-4.7-4.4-4.5
		C118.3,379.1,117.4,382,117.6,384.5z"/>
	<path class="st67" d="M89.1,401.4l-0.8-0.1c0-0.1,0.3-1.7,1-2.9l0.1-0.3h0.3c2.1,0.3,2.7-2.2,2.7-2.3l0.8,0.2
		c-0.3,1.1-1.3,3.1-3.4,3C89.4,400.1,89.1,401.4,89.1,401.4z"/>
	<path class="st64" d="M115.3,380.6c-1-1.6-3.1-2.4-4.8-2.6c-1.8-0.1-4.3,0.6-5.2,2.2c1.6-0.2,3.4-0.4,5.1-0.2
		C112,380.2,113.7,380.4,115.3,380.6z"/>
	
		<rect x="128.5" y="471.2" transform="matrix(0.9784 -0.2067 0.2067 0.9784 -98.3754 37.2153)" class="st68" width="0.9" height="36.4"/>
	<path class="st69" d="M131.8,569.4c-19.1,4-40.7,2.2-58,0l-0.6-7.7c19.1,4.5,41.5,4.7,59,1.2L131.8,569.4z"/>
	<path class="st70" d="M61.3,498.6c4.2,0.4,13.2,0.2,15.9-0.1c4.5-0.5,13.4-3.8,13.8-3.9l-0.2-0.5c-0.1,0-9.2,3.3-13.7,3.9
		c-4.8,0.6-16.7,0.5-17.5-0.2l-0.4,0.4C59.3,498.3,60.1,498.5,61.3,498.6L61.3,498.6z M71.5,457.4c5.8,0.6,7.1-6,7.1-6.1l-0.6-0.1
		c0,0.3-1.2,6.2-6.5,5.6c-4.5-0.5-5.9-4.4-6.2-6.1l-0.5,0.1C65.1,452.7,66.6,456.9,71.5,457.4L71.5,457.4z M60.9,470.2
		c0.1,0,0.3-0.1,0.3-0.2l0.7-3.4c0-0.1-0.1-0.3-0.2-0.3s-0.3,0.1-0.3,0.2l-0.7,3.4C60.6,470,60.7,470.2,60.9,470.2L60.9,470.2
		L60.9,470.2z M86,468.3L86,468.3c0.2,0,0.3-0.1,0.3-0.3l-0.6-5c0-0.2-0.1-0.3-0.3-0.3c-0.2,0-0.3,0.1-0.3,0.3l0.6,5
		C85.8,468.2,85.9,468.3,86,468.3L86,468.3z M70.9,471.1L70.9,471.1l7.4-0.3c0.2,0,0.4-0.2,0.4-0.5c0-0.2-0.2-0.4-0.5-0.4l-7.4,0.3
		c-0.2,0-0.4,0.2-0.4,0.5C70.5,471,70.7,471.1,70.9,471.1z"/>
	<path class="st58" d="M70.2,502.7l1.8,1.9l3,0.7l3.9,1.5l2-1.4l-0.9-1.1l2.1,0.8l0.7-0.8l-3.4-3.2l-2.6-1.8l2-0.7l-0.9-1.1
		l-3.9,0.7l-1.9,0.7c-2.3-2-7.6-6-10.5-7.8c0.1-4.5-1.5-16.2-1.5-21l-7.3-1.2c-0.1,6.7,1.9,17.7,2.5,25.5
		C58.5,498.4,66.3,501.2,70.2,502.7z"/>
	<path class="st56" d="M55.8,456.2c1.6-1.6,3.8-2.7,4.2-3l0.2,16.8c-0.1,0.3-6.9-0.3-8.5-0.7C52.5,462.5,52.6,458.9,55.8,456.2z"/>
	<g>
		<path class="st71" d="M58.6,429.4c1.3,2,1,4.5-0.7,5.7c-1.7,1.1-4,0.4-5.3-1.5c-1.3-2-1-4.5,0.7-5.7
			C54.9,426.7,57.3,427.4,58.6,429.4z"/>
		
			<linearGradient id="SVGID_10_" gradientUnits="userSpaceOnUse" x1="71.9673" y1="766.2148" x2="67.2049" y2="791.7825" gradientTransform="matrix(1 0 0 1 0 -348.0001)">
			<stop  offset="0" style="stop-color:#875526"/>
			<stop  offset="1" style="stop-color:#8E573A"/>
		</linearGradient>
		<path class="st72" d="M59.9,441.6c3.6,4.1,9.8,8.1,15.1,7.4c2.9-0.4,5-2.4,6.8-4.5c4-4.5,6.1-10.6,5.5-14.3c-0.1-0.9-1-4-1.3-5
			c-0.3-1.1,0.3-3.3,0.1-4.5c-0.3-2.3-0.7-4.6-1.4-7.2c-1.8-8.7-25.1-5.1-28.8-1.9c-2.8,2.5-0.9,12.8-0.7,16
			C55.5,431.8,57,438.3,59.9,441.6z"/>
		<path class="st40" d="M79.3,436.9c0,0-6.4,2.9-11.4-0.2c0.8,2.9,2.9,4.9,5.6,5.1C76.4,441.7,78,439.4,79.3,436.9z"/>
		<path class="st73" d="M63.7,420.1c1.8-0.4,3.4-0.5,5.2-0.6l0.2,1l-5.3,1.2h-1.6L63.7,420.1z"/>
		<path class="st73" d="M82,419.6l-4.1-0.4l-0.4,0.9l4.3,0.9l1-0.8C82.8,420.3,82.6,420.2,82,419.6z"/>
		<path class="st46" d="M68.5,438.3c0.5,1.2,1.6,3.5,2.7,3.9c1.6,0.6,3.5,0.5,4.6,0c0.9-0.4,1.8-1.8,2.7-3.8c-1.2,1.4-3.3,1.9-5,1.9
			C71.5,440.1,70.3,439.6,68.5,438.3z"/>
		<path class="st46" d="M78.8,437.1c-1.9,0.7-3.4,1.1-5,1.1c-1.4,0-3.1-0.2-5.3-1.3c1.5-0.5,3.3-0.8,5.3-0.9
			C75.5,436.1,77.6,436.4,78.8,437.1z"/>
		<path class="st73" d="M86.1,422c0.3-1.5,0.5-3,0.5-4.5c0.3-0.9,0.5-2.2-0.5-3.8c2-4.5-1.8-3.6-1.7-5.3c0.1-1.1-1.2-2.3-2.3-2
			c-0.1-1.7-3.1-3.2-4.6-2.2c-0.6-1.2-2.1-1.6-2.9-0.5c-0.1-1.7-3.2-3.3-5.2-0.7c-1-0.8-3.1-0.3-3.8,0.5c-0.5-0.9-4-1.5-4.1,1.1
			c-0.8-0.7-2.5,0-2.3,1.3c-1.1-0.2-3,0.7-3.8,1.4c-1.2,1-1.6,2.5-1.3,3.7c-2.2,0.1-2.6,3.1-1.7,4.3c-1.2,0.3-1.3,3.3,0.3,4.7
			c-0.6,0.9-0.2,5.7,0.8,7.7c0.8-0.3,1.2-0.4,1.8-0.4c0.5-1.7,0.8-4,1.1-5c0.1-0.9,0.4-2,0-3c0.6-1.1,1-2.1,0.5-2.6
			c1.8-0.8,1.8-3.3,1.6-3.7c1.5-0.1,1.4-2,2.5-1.8c0,0.8,1.6,1,3,0.7c0.8-0.2,1-1.1,2-1c0.4,0.6,1.9,0.6,2.7,0.2
			c0.5,0.9,1.7,1,2.6,0.7c1.8,1.4,3.1,0,3.9-0.7c1.3,0.7,2.2,0,3.2-0.3c1.1,0.8,2.1,0.9,2.9,0.5c0.5,0.9,1.4,1.3,2,1.5
			c0.1,1.3,0.7,1.5,1,1.9c0.4,0.8,0.7,1.6,0.9,2.5C85.5,418.6,85.8,420.2,86.1,422z"/>
		
			<linearGradient id="SVGID_11_" gradientUnits="userSpaceOnUse" x1="72.6336" y1="775.1651" x2="74.0183" y2="780.0485" gradientTransform="matrix(1 0 0 1 0 -348.0001)">
			<stop  offset="0" style="stop-color:#88542D"/>
			<stop  offset="5.000000e-02" style="stop-color:#88542D"/>
			<stop  offset="1" style="stop-color:#7C452F"/>
		</linearGradient>
		<path class="st74" d="M73.8,424.8c0.7,3.4,1.6,4.2,2.8,5.2c0.9,0.7,1.4,2.3-0.5,3.2c-1.9,0.9-4,0.5-4.4,0.3
			c-1.6-0.6-1.3-2-0.2-2.9c0.5-1.2,0.1-3.1,0.2-4.4C72.3,425.7,73,425.2,73.8,424.8z"/>
		<path class="st4" d="M76.8,426.8c2.3,0.5,5,0.5,7.2-0.5c0.1-0.7,0-1.3-0.3-1.8c-1.3-2.9-6.2-0.8-6.7,0.4
			C76.7,425.5,76.7,426.2,76.8,426.8z"/>
		
			<linearGradient id="SVGID_12_" gradientUnits="userSpaceOnUse" x1="80.5466" y1="776.2879" x2="79.9715" y2="770.5538" gradientTransform="matrix(1 0 0 1 0 -348.0001)">
			<stop  offset="0" style="stop-color:#3B2B37"/>
			<stop  offset="0.34" style="stop-color:#3B2B37"/>
			<stop  offset="0.88" style="stop-color:#655250"/>
			<stop  offset="1" style="stop-color:#655250"/>
		</linearGradient>
		<path class="st75" d="M78.3,427.1c0.4,0.1,1.6,0.1,2.6,0.1c0.5,0,1.1-0.1,1.4-0.3c0.4-1.1,0.3-2.5-0.4-3.1
			c-1.1-0.9-2.4-0.8-3.1,0.1C78.2,424.5,77.9,425.7,78.3,427.1z"/>
		<path class="st73" d="M76.5,425.7c2.1-1.3,3.7-1.7,5.4-1.6c1.2,0.1,1.7,0.8,2.3,1.5c-0.2-1.5-1.2-2.4-2.5-2.6
			C79.6,422.7,77.4,423.7,76.5,425.7z"/>
		<path class="st4" d="M70.1,427.2c-2.3,0.9-5.8,1.4-8.1,0.5c-0.1-1.7,2.2-3.5,4-3.8c1.2-0.2,2.7-0.2,3.5,1.1
			C69.9,425.6,70.1,426.5,70.1,427.2z"/>
		
			<linearGradient id="SVGID_13_" gradientUnits="userSpaceOnUse" x1="66.0337" y1="777.5287" x2="65.828" y2="770.9919" gradientTransform="matrix(1 0 0 1 0 -348.0001)">
			<stop  offset="0" style="stop-color:#3B2B37"/>
			<stop  offset="0.34" style="stop-color:#3B2B37"/>
			<stop  offset="0.88" style="stop-color:#655250"/>
			<stop  offset="1" style="stop-color:#655250"/>
		</linearGradient>
		<path class="st76" d="M68.3,427.7c-1.3,0.3-2.9,0.6-4.6,0.4c-0.4-1.9-0.2-4,2.2-4.3c0.8-0.1,1.7,0.3,2.1,1.1
			C68.5,425.7,68.5,427,68.3,427.7z"/>
		<path class="st73" d="M62,427c0.2-1.1,1.7-2.6,3.8-3.1c2-0.5,3.6,0.1,4.2,2.1c-0.9-0.9-1.9-1.2-3.3-1
			C64.7,425.3,63.6,425.7,62,427z"/>
	</g>
	<path class="st58" d="M870.9,557.9l6,34.1l7.6,1.1l0.2-2c-1.2-11.7-3-23.8-5.2-35.5L870.9,557.9z"/>
	<path class="st58" d="M833.7,558.1l-7.3,25.7l-6.7,3.3l-1.1-2.9c2.3-11.5,3.7-18.2,6.6-29.7L833.7,558.1z"/>
	<path class="st77" d="M886.3,765.8c0,0,0.1-3.9-1.8-5.8c-2.8-0.6-3-0.3-3.8-0.3l-11.8-5l-6.8,5l0.4,6L886.3,765.8z"/>
	<polygon class="st78" points="876,758.1 871.7,764 867.9,764 874.6,757.5 	"/>
	<polygon class="st78" points="879.4,759.3 876.3,764.1 873.7,764 877.9,758.7 	"/>
	<path class="st77" d="M817.6,765.6c0-1.2,0.6-3.8,2.5-5.7c1.1-0.2,2.6-0.2,3.4-0.2l10.7-3.8l7.6,4.2l-0.4,5.7L817.6,765.6z"/>
	<polygon class="st78" points="827,758.6 831.4,764 835.2,764 828.5,758.1 	"/>
	<polygon class="st78" points="823.8,759.8 826.2,764 828.9,764 825.2,759.3 	"/>
	<polygon class="st79" points="841.4,765.8 817.5,765.8 817.9,764.1 841.5,764.1 	"/>
	<polygon class="st79" points="886.4,765.8 862.5,765.7 862.3,764 886.1,764.1 	"/>
	<polygon class="st80" points="854.2,621 857.5,687.7 859.8,760.9 875.5,756.5 871.8,692 868.9,620.9 	"/>
	<path class="st80" d="M835.9,620.2c0,4.5-2.5,38.4-4.2,74c-1.7,35.3-3.6,63.1-3.6,63.1l15.5,3.9l1.7-67l3.6-72.4L835.9,620.2z"/>
	<polygon class="st80" points="867.3,628.1 838.3,625.7 835.1,621.5 835.7,607.1 869.6,608.4 869.6,621.7 	"/>
	<path class="st81" d="M835.5,616.7v-0.6c0.2,0,5.2-0.1,5.6-5.8h0.6C841.3,616.6,835.6,616.7,835.5,616.7z"/>
	<path class="st81" d="M868.8,616.9c-0.8,0-5.9-0.3-6.5-6.4l0.6-0.1c0.6,6,5.7,5.8,5.9,5.8v0.6C868.9,616.9,868.9,616.9,868.8,616.9
		z"/>
	<polygon class="st81" points="869.3,611.7 836.3,610.6 836.3,610 869.3,610.8 	"/>
	
		<rect x="850.8" y="621.6" transform="matrix(9.790535e-02 -0.9952 0.9952 9.790535e-02 144.4797 1412.5399)" class="st81" width="1.3" height="10"/>
	<path class="st82" d="M832.6,530c-1.4,1.8-2.5,5-3.7,8.4c-2.1,6.1-4,13.4-4.9,17.3l10.4,3.8l2.2-9.7l-1,57.3l34,1.3l-0.2-54.5
		l1.2,5.5l10.2-3c-1.2-5.5-2.7-11.8-5.1-19.7c-0.5-1.5-2.5-5.5-3.6-7.2l-19.5-7L832.6,530z"/>
	
		<linearGradient id="SVGID_14_" gradientUnits="userSpaceOnUse" x1="852.5073" y1="863.6879" x2="851.6898" y2="879.2231" gradientTransform="matrix(1 0 0 1 0 -348.0001)">
		<stop  offset="0" style="stop-color:#723B27"/>
		<stop  offset="1" style="stop-color:#8E573A"/>
	</linearGradient>
	<path class="st83" d="M843.4,525.9c0,2.4,2.5,9,8.5,9.3c6.1,0.2,8.6-7.6,8.7-9.9l-5-2l-1.2-15.1l-5.2-0.6l-1.4,16.2L843.4,525.9z"
		/>
	<polygon class="st49" points="867.3,542.6 869.1,554 869.9,553.6 868.1,543.1 	"/>
	<polygon class="st49" points="836.9,550 838.3,542.7 837.6,543 836.3,549.7 	"/>
	<path class="st58" d="M876.8,591.8l5.6,36l-2.7,8.5l1,1.6l1.8-2.8v5.2l-1.3,3.6l2,0.8l1.2-1.4l4.4-1.9l1.3-4.6l-1.8-9.1l-3.7-37.1
		l-0.8-2.4C880.2,589.5,878.2,589.4,876.8,591.8z"/>
	<polygon class="st84" points="889.1,625.3 881.1,626.4 880.8,624.1 888.7,622.5 	"/>
	<polygon class="st58" points="826.5,581.7 833,615.1 835.4,613.9 835.4,617.7 837.5,622.9 840,627.1 840.9,630.2 840.4,630.9 
		838.5,628.4 836.6,626.5 836.2,626.7 837.1,629.3 838.1,632.1 837.1,632.2 835.3,632 833.6,629.1 832.8,627.7 832.3,627.6 
		832.6,629.4 833.1,631.5 832.1,631.2 830.6,627.9 829.1,624 827.9,616.4 818.5,584.8 818.9,582.8 	"/>
	<g>
		
			<linearGradient id="SVGID_15_" gradientUnits="userSpaceOnUse" x1="876.6746" y1="841.1893" x2="868.9293" y2="840.5981" gradientTransform="matrix(1 0 0 1 0 -348.0001)">
			<stop  offset="0" style="stop-color:#875526"/>
			<stop  offset="1" style="stop-color:#8E573A"/>
		</linearGradient>
		<path class="st85" d="M868.7,492.6c-0.3,2.2,1.4,4.2,3.7,4.3c2.3,0.2,4.4-1.5,4.7-3.7s-1.4-4.2-3.7-4.3
			C871,488.8,868.9,490.4,868.7,492.6z"/>
		
			<linearGradient id="SVGID_16_" gradientUnits="userSpaceOnUse" x1="832.1931" y1="843.8907" x2="824.45" y2="843.2997" gradientTransform="matrix(1 0 0 1 0 -348.0001)">
			<stop  offset="0" style="stop-color:#875526"/>
			<stop  offset="1" style="stop-color:#8E573A"/>
		</linearGradient>
		<path class="st86" d="M824.2,495.3c-0.3,2.2,1.4,4.2,3.7,4.3c2.3,0.2,4.4-1.5,4.7-3.7s-1.4-4.2-3.7-4.3
			C826.5,491.4,824.5,493.1,824.2,495.3z"/>
		
			<linearGradient id="SVGID_17_" gradientUnits="userSpaceOnUse" x1="849.1048" y1="825.3717" x2="852.8344" y2="863.1904" gradientTransform="matrix(1 0 0 1 0 -348.0001)">
			<stop  offset="0" style="stop-color:#875526"/>
			<stop  offset="1" style="stop-color:#8E573A"/>
		</linearGradient>
		<path class="st87" d="M827.7,491.6c1.1,12,12.9,28.6,24,28c8.3-0.4,16.7-8,20.7-26c1.1-5.2-0.2-18.5-2.9-22.8
			c-1.8-3-3.5-4.9-7.4-6.2c-10.9-3.8-26.9-1.1-32.1,10.4C828.1,479,827.2,485.8,827.7,491.6z"/>
		<path class="st73" d="M872.1,489.9c0.3-0.4,0.8-0.7,1.5-0.7c0.9-2.7,2-9.6,0-13.1c3.1-6.8-1.8-6.5-1.6-9c0.1-1.6-1.9-3.4-3.5-3
			c-0.3-1.9-1-2.8-1.7-3.2c-0.7-0.5-1.8-0.6-3.4,0c0.8-3.8-3.7-3.6-5.2-2.3c-1.3-4.2-7.8-5.7-9.4-0.9c-1-2-3.3-3.1-4.4-0.3
			c-1.8-1.5-4.8-1.2-5.9,1.6c-2-1.4-5.3,0.7-5.7,3.3c-0.8-0.2-1.7,0-2.4,0.4c-1.3,0.8-1.6,1.9-1.5,3.3c-2.2,0.3-3.3,2.6-2.3,4.4
			c-3-0.1-4.6,2.8-3.8,5.4c0.3,1.1,1,1.9,1.4,2.2c-0.8,2.3-0.4,4.9,0.2,7.3c0.6,2.5,1.4,4.8,2.5,6.9l1.4,1.1
			c0.3-4.4,0.4-11.2,1.7-15.3c0.8-2.6,2.1-4,4.5-4.5c3.8-0.8,7.8-0.4,15.3-1.1c6.6-0.6,13-1.8,16.1-1.3c3,0.5,3.7,4.6,4.7,9.4
			C871.5,483.6,871.7,488,872.1,489.9z"/>
		<polygon class="st73" points="835.2,482.1 843.2,479.7 843.4,482.3 834.9,484.1 		"/>
		<polygon class="st73" points="864.3,479.8 857.5,478.3 857.6,480.8 865.1,481.5 		"/>
		<path class="st4" d="M845.1,489.4c-0.4-1.2-2.3-2.3-3.4-2.7c-5.3-1.9-8.2,3.7-7.9,4.8c0.9-0.2,4-0.1,6.5-0.5
			C841.3,490.9,844,489.7,845.1,489.4z"/>
		
			<linearGradient id="SVGID_18_" gradientUnits="userSpaceOnUse" x1="839.6902" y1="833.6194" x2="838.3314" y2="840.5711" gradientTransform="matrix(1 0 0 1 0 -348.0001)">
			<stop  offset="0" style="stop-color:#4B3B48"/>
			<stop  offset="0.34" style="stop-color:#4B3B48"/>
			<stop  offset="0.88" style="stop-color:#7F6765"/>
			<stop  offset="1" style="stop-color:#7F6765"/>
		</linearGradient>
		<path class="st88" d="M835.5,487.7c-0.1,0.7-0.2,0.4-0.1,1.4c0.1,1,1,2,1.8,2.2c0.9,0.3,3.3-0.1,4.7-0.7c0.7-0.2,0.9-1.1,1-2
			c0-0.8-0.3-1.7-0.8-2C839.9,486,837.1,486.5,835.5,487.7z"/>
		<path class="st73" d="M833.7,491.6c0.1-2.9,1.9-5.2,5-5.7c3.3-0.6,6.2,1.1,6.6,3.6c-1.2-2.2-4.1-3-6.5-2.5
			C836.4,487.4,834.6,488.9,833.7,491.6z"/>
		<path class="st4" d="M855,488.7c0.3-1.2,2-2.6,3.1-3.1c5.1-2.5,8.5,2.7,8.5,3.8c-1,0.1-2.6,1.1-6.6,0.8
			C858.8,490,856,489.2,855,488.7z"/>
		
			<linearGradient id="SVGID_19_" gradientUnits="userSpaceOnUse" x1="859.9731" y1="832.6854" x2="862.0491" y2="839.2769" gradientTransform="matrix(1 0 0 1 0 -348.0001)">
			<stop  offset="0" style="stop-color:#4B3B48"/>
			<stop  offset="0.34" style="stop-color:#4B3B48"/>
			<stop  offset="0.88" style="stop-color:#7F6765"/>
			<stop  offset="1" style="stop-color:#7F6765"/>
		</linearGradient>
		<path class="st89" d="M864.2,486c0.2,0.7,0.3,0.3,0.2,1.4c0,1-0.7,2.6-1.5,2.8c-0.7,0-2.7,0.3-4.3-0.3c-1.1-0.4-1.3-1.4-1.4-2.2
			c0-0.8,0.2-1.5,0.7-2.1C860.1,484.8,862.5,484.9,864.2,486z"/>
		<path class="st73" d="M866.6,489.4c-1.1-2.3-2.9-3.9-5.6-4.1c-2.4-0.2-5.2,1.3-6.1,3.4c0.3-2.6,2.7-4.7,6.1-4.5
			C864.4,484.3,866.3,486.4,866.6,489.4z"/>
		<path class="st90" d="M854,496.4l-5.3,0.3c0.3,0.9,1.2,2,2.6,2C852.7,498.6,853.6,497.8,854,496.4z"/>
		<path class="st62" d="M857.9,502.9c-0.4,4.6-1.9,8.5-6.8,8.3c-4.9-0.2-5.8-4.7-6.4-8C850.3,507.4,851.9,506.6,857.9,502.9z"/>
		<path class="st62" d="M858.7,502.7c0,0-3.3-0.9-5.9-1c-2.5-0.2-7.8,0.8-8.9,1.1C848.4,506.6,852.7,506.8,858.7,502.7z"/>
		<path class="st4" d="M843.9,502.8c3.6,1.7,11.3,2.1,14.8-0.1c-1.1,2.9-4.1,5.7-7,5.8C848.5,508.5,845.6,505.7,843.9,502.8z"/>
	</g>
	
		<linearGradient id="SVGID_20_" gradientUnits="userSpaceOnUse" x1="140.2728" y1="902.9819" x2="145.1648" y2="920.9408" gradientTransform="matrix(1 0 0 1 0 -348.0001)">
		<stop  offset="0" style="stop-color:#7E4531"/>
		<stop  offset="1" style="stop-color:#9A5D3D"/>
	</linearGradient>
	<path class="st91" d="M150.9,549.3l1.9,15l-6.4,31.9h-7l0.1-1.7l5.1-35.5C145,554.5,147,550.6,150.9,549.3z"/>
	<path class="st92" d="M161.6,696.2c-1-0.2-1.7-1-1.5-1.7s1.1-1.1,2.1-0.9c1,0.2,1.7,1,1.5,1.7C163.6,696.1,162.6,696.5,161.6,696.2
		z"/>
	<g>
		<path class="st30" d="M168.2,647.2c0.6,1.8-0.7,47.5-0.7,47.5l2.9,27.6l-0.3,41.1l-10.7-0.7l1.8-8.1l-5.2-103L168.2,647.2z"/>
		<path class="st30" d="M184.6,656.8c0.6,1.8-2,35.8-2,35.8l2.6,31.8l-0.3,36.9l-11.6,2.7l3.1-9.1l-2.1-59.9l-2.5-44.3L184.6,656.8z
			"/>
		<path class="st3" d="M147.3,660.1c13,4.4,26.3,5.9,43.3,1.1l-5.1-48.6l-34.4,0.3L147.3,660.1z"/>
		<path class="st92" d="M177.3,696.3c-1-0.2-1.7-1-1.5-1.7s1.1-1.1,2.1-0.9c1,0.2,1.7,1,1.5,1.7
			C179.2,696.2,178.3,696.6,177.3,696.3z"/>
		<path class="st93" d="M160.1,759.1c3.6,0.8,6.9,1.4,10.3,0.1c0.6,2.1,0.9,4.4,0.6,6.7h-12.7C156.2,763.7,158.7,760.7,160.1,759.1z
			"/>
		<path class="st93" d="M174.9,758.7c3.1,1.5,8.2,1.8,10.1,0.7c0.5,2.2,0.5,4.4,0.6,6.5h-13.1C172,761.7,172.5,761.7,174.9,758.7z"
			/>
		
			<linearGradient id="SVGID_21_" gradientUnits="userSpaceOnUse" x1="192.5795" y1="899.4859" x2="191.0968" y2="919.5672" gradientTransform="matrix(1 0 0 1 0 -348.0001)">
			<stop  offset="0" style="stop-color:#7E4531"/>
			<stop  offset="1" style="stop-color:#9A5D3D"/>
		</linearGradient>
		<path class="st94" d="M181.6,549.1l0.7,16.6l12.2,29.9l6.2-2L187.8,556C186.7,551.8,185.6,549.7,181.6,549.1z"/>
		
			<linearGradient id="SVGID_22_" gradientUnits="userSpaceOnUse" x1="166.5136" y1="887.1301" x2="165.6739" y2="896.4523" gradientTransform="matrix(1 0 0 1 0 -348.0001)">
			<stop  offset="0" style="stop-color:#7E4531"/>
			<stop  offset="1" style="stop-color:#9A5D3D"/>
		</linearGradient>
		<path class="st95" d="M156.6,545.8l3.6,5.7l12.2,0.3l2.9-6l-4.8-1.9c-0.2-5.2-0.8-9.9-0.8-9.9l-7.2,0.6c-0.6,6.6-0.5,7.3-0.9,9.4
			L156.6,545.8z"/>
		<path class="st2" d="M151.1,615.6l1.4-22.7l0.5-24.6l-9.8-8.9l1.5-4.9c0.8-2.6,2-4.8,4.5-5.8l8.3-3.5c4.6,4.8,12.7,4.9,17.7,0.1
			l7.1,2.6c3.5,1.3,5.5,2.6,6.5,5.6l2,6.3l-7.8,8.4l1.4,23.8l1.9,22.7C174.9,623.7,161.9,623.4,151.1,615.6z"/>
		<polygon class="st58" points="194.1,591.3 188.7,621.8 185.9,620.4 186.3,623.7 184.8,626.5 182.6,630.1 181.8,632.8 182.2,633.5 
			183.9,631.2 185.5,629.6 185.9,629.8 185.1,632 184.3,634.4 185.1,634.5 186.7,634.3 188.1,631.9 188.8,630.6 189.3,630.6 
			189,632.1 188.6,633.9 189.5,633.7 190.8,630.8 192,627.4 192.7,622.6 200.7,593.7 		"/>
		<path class="st58" d="M141,629l0.7,3l-3,5.1l-1.3,6.3l-2.6-0.1l-0.5-1.6l-0.6,2.5l-1.2,0.2l-0.3-5.8l1.2-5.6l-2,1.5l-0.5-1.6
			l3.2-3.3l2.7-1.3c1.3-11.8,1.4-21.5,2.5-33.3l4.3-2.6l3.1,1.9C144.6,606.7,143.1,616.8,141,629z"/>
		<g>
			<path class="st73" d="M153.8,526.4c-0.7,2.3-3.3,0.7-5.4,2.3c-6.4,4.8-6.5-0.5-9.7-1.6c-4.9-1.7-1.3-5-4.1-7
				c-2.7-2-2.4-4.3-1.8-5.5c0.4-0.8,2.1-2.6,1.6-5.1c-0.7-3,1.5-4.8,4-5c2.8-0.3,2.6-1.7,4.1-2.1c1.3-0.4,3.4-0.1,4.7,1.1l0.7,7.9
				l2.2,9.6L153.8,526.4z"/>
			<path class="st73" d="M185.7,503.6c1.8-1.3,3.2-0.8,5.2-0.4c1.5,0.3,3.3,1,4,2c0.8,1.1,0.4,2.6,1.8,3.6c2.9,2.1,3.9,4.5,2.8,7
				c-2.2,4.8-2.3,2.8-2,6c0.4,3.8-2.6,7.3-6.8,6.7c-2.9-0.4-3.7,2-5.2,1.7c-2.7-0.5-4.9-1.6-5.4-3.8l2.9-6.1L185.7,503.6z"/>
			
				<linearGradient id="SVGID_23_" gradientUnits="userSpaceOnUse" x1="165.3692" y1="848.2832" x2="167.1159" y2="882.2606" gradientTransform="matrix(1 0 0 1 0 -348.0001)">
				<stop  offset="0" style="stop-color:#875526"/>
				<stop  offset="1" style="stop-color:#8E573A"/>
			</linearGradient>
			<path class="st96" d="M184.9,502.8c-0.2,5.1-0.7,10.2-1.4,15.3c-0.3,2.3-0.4,4.8-1.4,6.8c-2,4.3-6.1,8-11,11.1
				c-2.1,1.3-3.5,1.6-5.9,1.5c-2.6-0.1-3.7-0.5-5.8-2.1c-2.3-1.7-5.2-4.3-6.3-5.5c-2.9-3-4.1-5.4-4.8-10.4l-2-14.2l3.5-13.8
				l16.2-3.4l15,4.4L184.9,502.8z"/>
			<path class="st73" d="M143.9,508.6c-4.3-5.1-3.3-14.5,0.2-21.2c3.2-6.2,8.4-9.8,15.4-11.1c2.7,0.1,5,1.2,7.2,2.5
				c2.2-1.9,7.5-2.3,9.7-2.2c6.1,2.8,10.5,7.5,12.7,13c2.2,5.6,2.8,12.2,0.1,18l-4.7,2.4l0.1-6.2c-0.9-2.4-2.3-5.8-3.3-8.2
				c-4.7-0.9-9.9-3.3-15-6.6c-4.4,2.9-10.2,5.7-16.1,7l-2.7,8.8v6.7L143.9,508.6z"/>
			<path class="st73" d="M171,502.8l4-0.1l4.8,0.9l0.4-0.7c-0.8-0.7-1.5-1.1-2.3-1.8h-6.5L171,502.8z"/>
			<polygon class="st73" points="161.1,501.9 156,502.4 153.1,503.1 152.7,502.3 155.5,500.4 160.8,500.8 			"/>
			<path class="st40" d="M172.5,523.4c-1.8,2.8-3.8,5.1-6.6,4.9c-2.2-0.1-3.5-1-4.7-2.3c-0.6-0.7-1.4-1.7-1.9-2.4
				C164,524,166.2,524.2,172.5,523.4z"/>
			<path class="st46" d="M170.5,526.4c-0.5,1.1-1.5,2.8-2.4,3.2c-1.4,0.5-3.1,0.4-4.1,0c-0.8-0.4-1.6-1.1-2.4-2.9
				c1.1,1,3,1.3,4.5,1.4C167.5,528,168.8,527.4,170.5,526.4z"/>
			<path class="st46" d="M159.1,523.6c1.6,0.3,3.6,0.8,5.2,1c0.9,0.1,1.8,0.1,2.7-0.1c1.4-0.3,4.2-0.6,5.7-1.1
				c-2-0.6-3.1-1.1-5.4-1.3c-1.5,0.4-2.4,0.3-3.9,0.1C162.1,522.4,159.9,522.9,159.1,523.6z"/>
			
				<linearGradient id="SVGID_24_" gradientUnits="userSpaceOnUse" x1="164.9977" y1="860.9602" x2="165.812" y2="865.3148" gradientTransform="matrix(1 0 0 1 0 -348.0001)">
				<stop  offset="0" style="stop-color:#88542D"/>
				<stop  offset="5.000000e-02" style="stop-color:#88542D"/>
				<stop  offset="1" style="stop-color:#7C452F"/>
			</linearGradient>
			<path class="st97" d="M165.7,518.6c-1.5-0.1-3.2-0.7-3.9-1.1c-0.5-0.7,0.2-2.2,0.6-2.5c0.4,0,0.8,0.2,1.1,0.3
				c0.2-1,0.4-2.9,0.6-3.9c1.2,0.1,2.3,0.2,3.5,0.3c0.1,0.9,0.1,2.8,0.3,3.7c0.3-0.1,0.8-0.2,1.4-0.2c0.5,0.4,0.7,1.8,0.6,2.3
				C169.5,518,167.2,518.7,165.7,518.6z"/>
			<path class="st98" d="M166.3,488.3h-0.6c0-0.3,0-0.7,0-1.1c0-2.4,0-5.4,1-8.2l0.5,0.2c-0.9,2.8-0.9,5.7-0.9,8
				C166.3,487.6,166.3,488,166.3,488.3z"/>
			<path class="st99" d="M149.2,511.3c0.8,2.1,0.3,4.3-1.3,4.9c-1.6,0.7-3.5-0.5-4.3-2.5c-0.8-2.1-0.3-4.3,1.3-4.9
				C146.4,508.1,148.4,509.3,149.2,511.3z"/>
			<path class="st99" d="M181.6,511.4c-0.8,2.1-0.1,4.3,1.5,4.9s3.5-0.6,4.2-2.7c0.8-2.1,0.1-4.3-1.5-4.9
				C184.2,508.1,182.4,509.3,181.6,511.4z"/>
			<path class="st4" d="M180.4,508.1c-1.1,1.1-3.8,2.6-5.3,2.7c-1.6,0.1-2.5,0-3.2-0.2s-1.5-0.4-2-0.8c0.9-2.9,3.3-3.5,5.8-3.4
				C178.1,506.5,179.5,507.5,180.4,508.1z"/>
			<path class="st100" d="M177.2,510.2c-1.3,0.7-2.6,0.8-4.4,0.6c-1-0.7-1.4-1.9-1.1-3.2c2.3-1.4,4.9-1.5,5.7-0.7
				C178.1,508.1,177.8,509.6,177.2,510.2z"/>
			<path class="st73" d="M169.8,509.4c1.7-2.2,4.1-2.9,6.9-2.6c1.8,0.2,3.7,0.7,5.3,1.1c-2.8-1.9-5.7-2.8-8.5-2.3
				C171.5,506.1,170.2,507.4,169.8,509.4z"/>
			<path class="st4" d="M151.5,507.6c0.4,0.7,1.2,1.6,2.4,2.3c1.5,0.7,2.4,1,4,1c0.7,0,1.2,0,1.6-0.1c0.7-0.2,1.5-0.4,2-0.8
				c-0.5-2.5-3-3.7-5.4-3.7C153.8,506.3,152.7,506.6,151.5,507.6z"/>
			<path class="st100" d="M154,509.9c1.3,0.7,2.5,1,4,1c1.1-0.7,1.8-2,1.4-3.7c-2.1-1.5-4.8-1.2-5.6-0.4
				C153.2,508,153.5,509.1,154,509.9z"/>
			<path class="st73" d="M161.7,509.5c-1.6-2.3-3.9-3-6.6-2.8c-1.7,0.1-3.5,0.5-5.1,0.9c2.7-1.8,5.6-2.5,8.3-1.8
				C160.1,506.2,161.4,507.4,161.7,509.5z"/>
		</g>
	</g>
</g>
</svg>
