<?xml version="1.0" encoding="utf-8"?>
<!-- Generator: Adobe Illustrator 21.0.2, SVG Export Plug-In . SVG Version: 6.00 Build 0)  -->
<svg version="1.1" id="Layer_1" xmlns="http://www.w3.org/2000/svg" xmlns:xlink="http://www.w3.org/1999/xlink" x="0px" y="0px"
	 viewBox="0 0 74.6 73.7" style="enable-background:new 0 0 74.6 73.7;" xml:space="preserve">
<style type="text/css">
	.st0{clip-path:url(#SVGID_2_);fill:#5C0F8B;}
	.st1{clip-path:url(#SVGID_4_);fill:#FFFFFF;}
	.st2{clip-path:url(#SVGID_6_);fill:#FFFFFF;}
	.st3{clip-path:url(#SVGID_8_);fill:#FFFFFF;}
	.st4{clip-path:url(#SVGID_10_);fill:#FFFFFF;}
	.st5{clip-path:url(#SVGID_12_);fill:#FFB71B;}
	.st6{clip-path:url(#SVGID_14_);fill:#FFB71B;}
	.st7{fill:#5C0F8B;}
	.st8{font-family:'Gotham-Bold';}
	.st9{font-size:5.4284px;}
</style>
<g>
	<g>
		<g>
			<defs>
				<rect id="SVGID_1_" x="16.7" y="13.5" width="42.8" height="42.8"/>
			</defs>
			<clipPath id="SVGID_2_">
				<use xlink:href="#SVGID_1_"  style="overflow:visible;"/>
			</clipPath>
			<path class="st0" d="M59.4,54V15.8c0-1.2-1-2.2-2.2-2.2H18.9c-1.2,0-2.2,1-2.2,2.2v38.3c0,1.2,1,2.2,2.2,2.2h38.3
				C58.4,56.3,59.4,55.3,59.4,54"/>
		</g>
		<g>
			<defs>
				<rect id="SVGID_3_" x="16.7" y="13.5" width="42.8" height="42.8"/>
			</defs>
			<clipPath id="SVGID_4_">
				<use xlink:href="#SVGID_3_"  style="overflow:visible;"/>
			</clipPath>
			<path class="st1" d="M43.4,36.1V32l-0.3,0.4c-0.4,0.6-1.3,2-1.4,2.1c0,0-0.1,0.1-0.2,0.1c-0.1,0-0.1,0-0.2-0.1
				c-0.1-0.1-1.4-2.1-1.4-2.1L39.6,32v4.1h-1.5v-6c0,0,0-0.1,0.1-0.2c0,0,0.1-0.1,0.2-0.1h1.3c0.2,0,0.3,0.2,0.3,0.2l1.5,2.5
				l0.1-0.2c0,0,1.3-2.1,1.4-2.3c0.1-0.1,0.3-0.2,0.3-0.2h1.3c0.2,0,0.2,0.2,0.2,0.2v6L43.4,36.1L43.4,36.1z"/>
		</g>
		<g>
			<defs>
				<rect id="SVGID_5_" x="16.7" y="13.5" width="42.8" height="42.8"/>
			</defs>
			<clipPath id="SVGID_6_">
				<use xlink:href="#SVGID_5_"  style="overflow:visible;"/>
			</clipPath>
			<path class="st2" d="M23.6,36.1v-5.8c0-0.3,0.3-0.4,0.3-0.4h4.5v1.3h-3.3v1.4h3.1v1.2h-3.1v2.3C25.1,36.1,23.6,36.1,23.6,36.1z"
				/>
		</g>
		<g>
			<defs>
				<rect id="SVGID_7_" x="16.7" y="13.5" width="42.8" height="42.8"/>
			</defs>
			<clipPath id="SVGID_8_">
				<use xlink:href="#SVGID_7_"  style="overflow:visible;"/>
			</clipPath>
			<path class="st3" d="M33.6,36.2c-1.8,0-3.2-1.4-3.2-3.2c0-1.9,1.4-3.2,3.3-3.2c1.1,0,1.9,0.4,2.5,1.2l-1,0.7h-0.1
				c-0.1,0-0.1,0-0.2-0.1c-0.4-0.4-0.8-0.6-1.3-0.6c-1,0-1.7,0.8-1.7,1.9c0,1.1,0.7,1.9,1.7,1.9c0.5,0,1-0.2,1.4-0.6
				c0,0,0.1-0.1,0.2-0.1c0.1,0,0.1,0,0.1,0l1,0.7C35.6,35.8,34.8,36.2,33.6,36.2"/>
		</g>
		<g>
			<defs>
				<rect id="SVGID_9_" x="16.7" y="13.5" width="42.8" height="42.8"/>
			</defs>
			<clipPath id="SVGID_10_">
				<use xlink:href="#SVGID_9_"  style="overflow:visible;"/>
			</clipPath>
			<path class="st4" d="M48.3,32.5h1.3c0.9,0,1-0.4,1-0.7c0-0.2-0.1-0.7-1-0.7h-1.3V32.5z M48.3,34.9h1.6c0.6,0,1-0.3,1-0.7
				c0-0.2-0.1-0.8-1-0.8h-1.5L48.3,34.9L48.3,34.9z M46.9,36.1v-5.8c0-0.3,0.3-0.4,0.4-0.4h2.8c0.8,0,1.3,0.2,1.7,0.5
				c0.2,0.2,0.4,0.6,0.4,0.9c0,0.6-0.3,1.1-0.9,1.3l-0.4,0.2l0.4,0.1c0.8,0.3,1.2,0.7,1.2,1.4c0,1-0.9,1.7-2.3,1.7L46.9,36.1
				L46.9,36.1z"/>
		</g>
		<g>
			<defs>
				<rect id="SVGID_11_" x="16.7" y="13.5" width="42.8" height="42.8"/>
			</defs>
			<clipPath id="SVGID_12_">
				<use xlink:href="#SVGID_11_"  style="overflow:visible;"/>
			</clipPath>
			<path class="st5" d="M52.9,46v3.7H24.6c-0.8,0-1.4-0.6-1.4-1.4V46H52.9z"/>
		</g>
		<g>
			<defs>
				<rect id="SVGID_13_" x="16.7" y="13.5" width="42.8" height="42.8"/>
			</defs>
			<clipPath id="SVGID_14_">
				<use xlink:href="#SVGID_13_"  style="overflow:visible;"/>
			</clipPath>
			<path class="st6" d="M52.9,45.2H23.2v-2.3c0-0.8,0.6-1.4,1.4-1.4h28.3V45.2z"/>
		</g>
	</g>
</g>
<text transform="matrix(1 0 0 1 23.4999 63.8737)" class="st7 st8 st9">TRUSTEES</text>
</svg>
