<?xml version="1.0" encoding="utf-8"?>
<!-- Generator: Adobe Illustrator 22.0.0, SVG Export Plug-In . SVG Version: 6.00 Build 0)  -->
<svg version="1.1" id="Layer_1" xmlns="http://www.w3.org/2000/svg" xmlns:xlink="http://www.w3.org/1999/xlink" x="0px" y="0px"
	 viewBox="0 0 92.6 44.4" style="enable-background:new 0 0 92.6 44.4;" xml:space="preserve">
<style type="text/css">
	.st0{clip-path:url(#SVGID_2_);fill:#5C0F8B;}
	.st1{clip-path:url(#SVGID_2_);fill:#FFFFFF;}
	.st2{clip-path:url(#SVGID_2_);fill:#FFB71B;}
	.st3{fill:#5C0F8B;}
</style>
<g>
	<g>
		<defs>
			<rect id="SVGID_1_" x="0.8" y="0.8" width="42.8" height="42.8"/>
		</defs>
		<clipPath id="SVGID_2_">
			<use xlink:href="#SVGID_1_"  style="overflow:visible;"/>
		</clipPath>
		<path class="st0" d="M43.5,41.3V3.1c0-1.2-1-2.2-2.2-2.2H3c-1.2,0-2.2,1-2.2,2.2v38.3c0,1.2,1,2.2,2.2,2.2h38.3
			C42.5,43.6,43.5,42.6,43.5,41.3"/>
		<path class="st1" d="M27.5,23.4v-4.1l-0.3,0.4c-0.4,0.6-1.3,2-1.4,2.1c0,0-0.1,0.1-0.2,0.1c-0.1,0-0.1,0-0.2-0.1
			c-0.1-0.1-1.4-2.1-1.4-2.1l-0.3-0.4v4.1h-1.5v-6c0,0,0-0.1,0.1-0.2c0,0,0.1-0.1,0.2-0.1h1.3c0.2,0,0.3,0.2,0.3,0.2l1.5,2.5
			l0.1-0.2c0,0,1.3-2.1,1.4-2.3c0.1-0.1,0.3-0.2,0.3-0.2h1.3c0.2,0,0.2,0.2,0.2,0.2v6H27.5z"/>
		<path class="st1" d="M7.7,23.4v-5.8c0-0.3,0.3-0.4,0.3-0.4h4.5v1.3H9.2v1.4h3.1v1.2H9.2v2.3H7.7z"/>
		<path class="st1" d="M17.7,23.5c-1.8,0-3.2-1.4-3.2-3.2c0-1.9,1.4-3.2,3.3-3.2c1.1,0,1.9,0.4,2.5,1.2l-1,0.7c0,0-0.1,0-0.1,0
			c-0.1,0-0.1,0-0.2-0.1c-0.4-0.4-0.8-0.6-1.3-0.6c-1,0-1.7,0.8-1.7,1.9c0,1.1,0.7,1.9,1.7,1.9c0.5,0,1-0.2,1.4-0.6
			c0,0,0.1-0.1,0.2-0.1c0.1,0,0.1,0,0.1,0l1,0.7C19.7,23.1,18.9,23.5,17.7,23.5"/>
		<path class="st1" d="M32.4,19.8h1.3c0.9,0,1-0.4,1-0.7c0-0.2-0.1-0.7-1-0.7h-1.3V19.8z M32.4,22.2H34c0.6,0,1-0.3,1-0.7
			c0-0.2-0.1-0.8-1-0.8h-1.5V22.2z M31,23.4v-5.8c0-0.3,0.3-0.4,0.4-0.4h2.8c0.8,0,1.3,0.2,1.7,0.5c0.2,0.2,0.4,0.6,0.4,0.9
			c0,0.6-0.3,1.1-0.9,1.3l-0.4,0.2l0.4,0.1c0.8,0.3,1.2,0.7,1.2,1.4c0,1-0.9,1.7-2.3,1.7H31z"/>
		<path class="st2" d="M37,33.3l0,3.7H8.7c-0.8,0-1.4-0.6-1.4-1.4v-2.3H37z"/>
		<path class="st2" d="M37,32.5H7.3v-2.3c0-0.8,0.6-1.4,1.4-1.4H37V32.5z"/>
	</g>
</g>
<g>
	<path class="st3" d="M51.5,18.7h-1.8v-1.2h4.9v1.2h-1.8v4.7h-1.3V18.7z"/>
	<path class="st3" d="M55.1,17.5h2.7c0.7,0,1.3,0.2,1.7,0.6c0.3,0.3,0.5,0.8,0.5,1.3v0c0,1-0.5,1.5-1.3,1.8l1.4,2.1h-1.5l-1.3-1.9
		h-1v1.9h-1.3V17.5z M57.7,20.3c0.6,0,1-0.3,1-0.8v0c0-0.6-0.4-0.8-1-0.8h-1.3v1.7H57.7z"/>
	<path class="st3" d="M60.7,20.8v-3.4H62v3.3c0,1,0.5,1.5,1.3,1.5c0.8,0,1.3-0.5,1.3-1.4v-3.4h1.3v3.3c0,1.8-1,2.7-2.6,2.7
		S60.7,22.6,60.7,20.8z"/>
	<path class="st3" d="M66.3,22.5l0.8-0.9c0.5,0.4,1.1,0.7,1.8,0.7c0.5,0,0.8-0.2,0.8-0.6v0c0-0.3-0.2-0.5-1.2-0.7
		c-1.2-0.3-2-0.6-2-1.8v0c0-1.1,0.9-1.8,2.1-1.8c0.9,0,1.6,0.3,2.2,0.7l-0.7,1c-0.5-0.4-1-0.6-1.5-0.6c-0.5,0-0.8,0.2-0.8,0.5v0
		c0,0.4,0.3,0.5,1.3,0.8c1.2,0.3,1.9,0.7,1.9,1.8v0c0,1.2-0.9,1.8-2.2,1.8C67.9,23.4,67,23.1,66.3,22.5z"/>
	<path class="st3" d="M72.9,18.7h-1.8v-1.2H76v1.2h-1.8v4.7h-1.3V18.7z"/>
	<path class="st3" d="M76.6,17.5H81v1.2h-3.2v1.2h2.8V21h-2.8v1.2h3.2v1.2h-4.5V17.5z"/>
	<path class="st3" d="M81.8,17.5h4.4v1.2h-3.2v1.2h2.8V21h-2.8v1.2h3.2v1.2h-4.5V17.5z"/>
	<path class="st3" d="M86.6,22.5l0.8-0.9c0.5,0.4,1.1,0.7,1.8,0.7c0.5,0,0.8-0.2,0.8-0.6v0c0-0.3-0.2-0.5-1.2-0.7
		c-1.2-0.3-2-0.6-2-1.8v0c0-1.1,0.9-1.8,2.1-1.8c0.9,0,1.6,0.3,2.2,0.7l-0.7,1c-0.5-0.4-1-0.6-1.5-0.6c-0.5,0-0.8,0.2-0.8,0.5v0
		c0,0.4,0.3,0.5,1.3,0.8c1.2,0.3,1.9,0.7,1.9,1.8v0c0,1.2-0.9,1.8-2.2,1.8C88.2,23.4,87.3,23.1,86.6,22.5z"/>
</g>
</svg>
