<?xml version="1.0" encoding="utf-8"?>
<!-- Generator: Adobe Illustrator 16.0.0, SVG Export Plug-In . SVG Version: 6.00 Build 0)  -->
<!DOCTYPE svg PUBLIC "-//W3C//DTD SVG 1.1//EN" "http://www.w3.org/Graphics/SVG/1.1/DTD/svg11.dtd">
<svg version="1.1" id="Layer_1" xmlns="http://www.w3.org/2000/svg" xmlns:xlink="http://www.w3.org/1999/xlink" x="0px" y="0px"
	 width="1000px" height="1000px" viewBox="0 0 1000 1000" enable-background="new 0 0 1000 1000" xml:space="preserve">
<g>
	<g>
		<g>
			<defs>
				<rect id="SVGID_1_" x="8.639" y="268.898" width="92.286" height="92.286"/>
			</defs>
			<clipPath id="SVGID_2_">
				<use xlink:href="#SVGID_1_"  overflow="visible"/>
			</clipPath>
			<path clip-path="url(#SVGID_2_)" fill="#5C0F8B" d="M100.709,356.225v-82.368c0-2.587-2.156-4.743-4.743-4.743H13.383
				c-2.587,0-4.744,2.156-4.744,4.743v82.583c0,2.587,2.156,4.744,4.744,4.744h82.583
				C98.553,361.184,100.709,359.028,100.709,356.225"/>
		</g>
		<g>
			<defs>
				<rect id="SVGID_3_" x="8.639" y="268.898" width="92.286" height="92.286"/>
			</defs>
			<clipPath id="SVGID_4_">
				<use xlink:href="#SVGID_3_"  overflow="visible"/>
			</clipPath>
			<path clip-path="url(#SVGID_4_)" fill="#FFFFFF" d="M66.21,317.628v-8.84l-0.647,0.863c-0.862,1.293-2.803,4.312-3.019,4.528
				c0,0-0.215,0.215-0.431,0.215c-0.216,0-0.216,0-0.432-0.215c-0.216-0.216-3.019-4.528-3.019-4.528l-0.647-0.863v8.84h-3.234
				v-12.937c0,0,0-0.215,0.216-0.431c0,0,0.215-0.215,0.431-0.215h2.803c0.431,0,0.647,0.431,0.647,0.431l3.234,5.39l0.215-0.431
				c0,0,2.803-4.528,3.019-4.959c0.215-0.216,0.646-0.431,0.646-0.431h2.803c0.431,0,0.431,0.431,0.431,0.431v12.937H66.21V317.628z
				"/>
		</g>
		<g>
			<defs>
				<rect id="SVGID_5_" x="8.639" y="268.898" width="92.286" height="92.286"/>
			</defs>
			<clipPath id="SVGID_6_">
				<use xlink:href="#SVGID_5_"  overflow="visible"/>
			</clipPath>
			<path clip-path="url(#SVGID_6_)" fill="#FFFFFF" d="M23.517,317.628v-12.506c0-0.646,0.647-0.862,0.647-0.862h9.703v2.803h-7.115
				v3.019h6.684v2.587h-6.684v4.959H23.517z"/>
		</g>
		<g>
			<defs>
				<rect id="SVGID_7_" x="8.639" y="268.898" width="92.286" height="92.286"/>
			</defs>
			<clipPath id="SVGID_8_">
				<use xlink:href="#SVGID_7_"  overflow="visible"/>
			</clipPath>
			<path clip-path="url(#SVGID_8_)" fill="#FFFFFF" d="M45.079,317.845c-3.881,0-6.9-3.02-6.9-6.9c0-4.097,3.019-6.899,7.116-6.899
				c2.372,0,4.097,0.862,5.39,2.587l-2.156,1.51h-0.215c-0.216,0-0.216,0-0.431-0.215c-0.863-0.863-1.725-1.294-2.803-1.294
				c-2.157,0-3.666,1.725-3.666,4.097c0,2.373,1.509,4.097,3.666,4.097c1.078,0,2.156-0.431,3.019-1.293
				c0,0,0.216-0.216,0.431-0.216c0.216,0,0.216,0,0.216,0l2.156,1.509C49.392,316.981,47.667,317.845,45.079,317.845"/>
		</g>
		<g>
			<defs>
				<rect id="SVGID_9_" x="8.639" y="268.898" width="92.286" height="92.286"/>
			</defs>
			<clipPath id="SVGID_10_">
				<use xlink:href="#SVGID_9_"  overflow="visible"/>
			</clipPath>
			<path clip-path="url(#SVGID_10_)" fill="#FFFFFF" d="M76.775,309.866h2.804c1.941,0,2.156-0.862,2.156-1.509
				c0-0.431-0.215-1.51-2.156-1.51h-2.804V309.866z M76.775,315.042h3.45c1.294,0,2.156-0.647,2.156-1.51
				c0-0.431-0.215-1.725-2.156-1.725h-3.234v3.235H76.775z M73.757,317.628v-12.506c0-0.646,0.647-0.862,0.862-0.862h6.038
				c1.725,0,2.803,0.431,3.665,1.078c0.432,0.431,0.863,1.293,0.863,1.94c0,1.294-0.647,2.373-1.94,2.803l-0.863,0.431l0.863,0.215
				c1.725,0.647,2.587,1.51,2.587,3.019c0,2.156-1.94,3.666-4.959,3.666h-7.115V317.628z"/>
		</g>
		<g>
			<defs>
				<rect id="SVGID_11_" x="8.639" y="268.898" width="92.286" height="92.286"/>
			</defs>
			<clipPath id="SVGID_12_">
				<use xlink:href="#SVGID_11_"  overflow="visible"/>
			</clipPath>
			<path clip-path="url(#SVGID_12_)" fill="#FFB71B" d="M86.694,338.975v7.979H25.673c-1.725,0-3.019-1.294-3.019-3.019v-4.96
				H86.694z"/>
		</g>
		<g>
			<defs>
				<rect id="SVGID_13_" x="8.639" y="268.898" width="92.286" height="92.286"/>
			</defs>
			<clipPath id="SVGID_14_">
				<use xlink:href="#SVGID_13_"  overflow="visible"/>
			</clipPath>
			<path clip-path="url(#SVGID_14_)" fill="#FFB71B" d="M86.694,337.25h-64.04v-4.96c0-1.724,1.294-3.019,3.019-3.019h61.021V337.25
				z"/>
		</g>
	</g>
</g>
<g>
	<path fill="#5C0F8B" d="M117.958,307.495h-3.881v-2.587h10.565v2.587h-3.881v10.134h-2.803V307.495L117.958,307.495z"/>
	<path fill="#5C0F8B" d="M125.721,304.907h5.822c1.509,0,2.803,0.431,3.666,1.294c0.647,0.646,1.078,1.725,1.078,2.803l0,0
		c0,2.156-1.078,3.234-2.803,3.881l3.019,4.528h-3.234l-2.803-4.097h-2.156v4.097h-2.803v-12.506H125.721z M131.328,310.944
		c1.293,0,2.156-0.647,2.156-1.725l0,0c0-1.293-0.862-1.725-2.156-1.725h-2.803v3.666h2.803V310.944z"/>
	<path fill="#5C0F8B" d="M137.796,312.022v-7.331h2.803v7.115c0,2.156,1.078,3.235,2.803,3.235c1.725,0,2.803-1.079,2.803-3.019
		v-7.331h2.803v7.115c0,3.881-2.156,5.822-5.606,5.822C139.952,317.628,137.796,315.903,137.796,312.022z"/>
	<path fill="#5C0F8B" d="M149.871,315.688l1.724-1.94c1.079,0.862,2.373,1.509,3.882,1.509c1.078,0,1.724-0.432,1.724-1.294l0,0
		c0-0.647-0.431-1.078-2.587-1.509c-2.587-0.647-4.313-1.293-4.313-3.881l0,0c0-2.372,1.941-3.881,4.528-3.881
		c1.94,0,3.45,0.647,4.744,1.51l-1.509,2.156c-1.078-0.862-2.156-1.293-3.234-1.293c-1.079,0-1.725,0.431-1.725,1.078l0,0
		c0,0.862,0.646,1.078,2.803,1.725c2.587,0.647,4.097,1.509,4.097,3.881l0,0c0,2.587-1.941,3.881-4.744,3.881
		C153.321,317.628,151.38,316.981,149.871,315.688z"/>
	<path fill="#5C0F8B" d="M164.102,307.495h-3.881v-2.587h10.566v2.587h-3.882v10.134h-2.803V307.495L164.102,307.495z"/>
	<path fill="#5C0F8B" d="M172.08,304.907h9.487v2.587h-6.9v2.587h6.038v2.372h-6.038v2.588h6.9v2.587h-9.703v-12.721H172.08z"/>
	<path fill="#5C0F8B" d="M183.292,304.907h9.488v2.587h-6.9v2.587h6.038v2.372h-6.038v2.588h6.9v2.587h-9.703v-12.721H183.292z"/>
	<path fill="#5C0F8B" d="M193.642,315.688l1.725-1.94c1.078,0.862,2.372,1.509,3.881,1.509c1.078,0,1.725-0.432,1.725-1.294l0,0
		c0-0.647-0.431-1.078-2.587-1.509c-2.587-0.647-4.313-1.293-4.313-3.881l0,0c0-2.372,1.941-3.881,4.528-3.881
		c1.941,0,3.451,0.647,4.744,1.51l-1.509,2.156c-1.078-0.862-2.156-1.293-3.234-1.293s-1.724,0.431-1.724,1.078l0,0
		c0,0.862,0.646,1.078,2.802,1.725c2.588,0.647,4.097,1.509,4.097,3.881l0,0c0,2.587-1.941,3.881-4.743,3.881
		C197.092,317.628,195.151,316.981,193.642,315.688z"/>
</g>
</svg>
