<?xml version="1.0" encoding="utf-8"?>
<!-- Generator: Adobe Illustrator 22.1.0, SVG Export Plug-In . SVG Version: 6.00 Build 0)  -->
<svg version="1.1" id="Layer_1" xmlns="http://www.w3.org/2000/svg" xmlns:xlink="http://www.w3.org/1999/xlink" x="0px" y="0px"
	 viewBox="0 0 74.6 73.7" style="enable-background:new 0 0 74.6 73.7;" xml:space="preserve">
<style type="text/css">
	.st0{clip-path:url(#SVGID_2_);fill:#5C0F8B;}
	.st1{clip-path:url(#SVGID_2_);fill:#FFFFFF;}
	.st2{clip-path:url(#SVGID_2_);fill:#FFB71B;}
	.st3{fill:#5C0F8B;}
</style>
<g>
	<g>
		<defs>
			<rect id="SVGID_1_" x="16.7" y="13.5" width="42.8" height="42.8"/>
		</defs>
		<clipPath id="SVGID_2_">
			<use xlink:href="#SVGID_1_"  style="overflow:visible;"/>
		</clipPath>
		<path class="st0" d="M59.5,54V15.7c0-1.2-1-2.2-2.2-2.2H18.9c-1.2,0-2.2,1-2.2,2.2V54c0,1.2,1,2.2,2.2,2.2h38.3
			C58.5,56.3,59.5,55.3,59.5,54"/>
		<path class="st1" d="M43.4,36.1V32l-0.3,0.4c-0.4,0.6-1.3,2-1.4,2.1c0,0-0.1,0.1-0.2,0.1c-0.1,0-0.1,0-0.2-0.1
			c-0.1-0.1-1.4-2.1-1.4-2.1L39.8,32v4.1h-1.5v-6c0,0,0-0.1,0.1-0.2c0,0,0.1-0.1,0.2-0.1h1.3c0.2,0,0.3,0.2,0.3,0.2l1.5,2.5l0.1-0.2
			c0,0,1.3-2.1,1.4-2.3c0.1-0.1,0.3-0.2,0.3-0.2h1.3c0.2,0,0.2,0.2,0.2,0.2v6H43.4z"/>
		<path class="st1" d="M23.7,36.1v-5.8c0-0.3,0.3-0.4,0.3-0.4h4.5v1.3h-3.4v1.4h3.1v1.2h-3.1v2.3H23.7z"/>
		<path class="st1" d="M33.7,36.2c-1.8,0-3.2-1.4-3.2-3.2c0-1.9,1.4-3.2,3.3-3.2c1.1,0,1.9,0.4,2.5,1.2l-1,0.7c0,0-0.1,0-0.1,0
			c-0.1,0-0.1,0-0.2-0.1c-0.4-0.4-0.8-0.6-1.3-0.6c-1,0-1.7,0.8-1.7,1.9c0,1.1,0.7,1.9,1.7,1.9c0.5,0,1-0.2,1.4-0.6
			c0,0,0.1-0.1,0.2-0.1c0.1,0,0.1,0,0.1,0l1,0.7C35.7,35.8,34.8,36.2,33.7,36.2"/>
		<path class="st1" d="M48.4,32.5h1.3c0.9,0,1-0.4,1-0.7c0-0.2-0.1-0.7-1-0.7h-1.3V32.5z M48.4,34.9h1.5c0.6,0,1-0.3,1-0.7
			c0-0.2-0.1-0.8-1-0.8h-1.5V34.9z M46.9,36.1v-5.8c0-0.3,0.3-0.4,0.4-0.4h2.8c0.8,0,1.3,0.2,1.7,0.5c0.2,0.2,0.4,0.6,0.4,0.9
			c0,0.6-0.3,1.1-0.9,1.3l-0.4,0.2l0.4,0.1c0.8,0.3,1.2,0.7,1.2,1.4c0,1-0.9,1.7-2.3,1.7H46.9z"/>
		<path class="st2" d="M53,46l0,3.7H24.6c-0.8,0-1.4-0.6-1.4-1.4V46H53z"/>
		<path class="st2" d="M53,45.1H23.2v-2.3c0-0.8,0.6-1.4,1.4-1.4H53V45.1z"/>
	</g>
	<g>
		<g>
			<path class="st3" d="M27.9,60.5h-1v-0.6h2.6v0.6h-1V63h-0.7V60.5z"/>
			<path class="st3" d="M29.9,59.8h1.5c0.4,0,0.7,0.1,0.9,0.3c0.2,0.2,0.3,0.4,0.3,0.7v0c0,0.5-0.3,0.8-0.7,1l0.8,1.1h-0.8l-0.7-1
				h-0.5v1h-0.7V59.8z M31.3,61.3c0.3,0,0.5-0.2,0.5-0.4v0c0-0.3-0.2-0.5-0.5-0.5h-0.7v0.9H31.3z"/>
			<path class="st3" d="M32.9,61.6v-1.8h0.7v1.8c0,0.5,0.3,0.8,0.7,0.8s0.7-0.3,0.7-0.8v-1.8h0.7v1.8c0,1-0.5,1.4-1.4,1.4
				C33.4,63,32.9,62.6,32.9,61.6z"/>
			<path class="st3" d="M35.9,62.5l0.4-0.5c0.3,0.2,0.6,0.4,0.9,0.4c0.3,0,0.5-0.1,0.5-0.3v0c0-0.2-0.1-0.3-0.6-0.4
				c-0.6-0.2-1.1-0.3-1.1-1v0c0-0.6,0.5-1,1.1-1c0.5,0,0.9,0.1,1.2,0.4L38,60.7c-0.3-0.2-0.6-0.3-0.8-0.3c-0.3,0-0.4,0.1-0.4,0.3v0
				c0,0.2,0.1,0.3,0.7,0.4c0.6,0.2,1,0.4,1,1v0c0,0.6-0.5,1-1.2,1C36.8,63,36.3,62.9,35.9,62.5z"/>
			<path class="st3" d="M39.5,60.5h-1v-0.6h2.6v0.6h-1V63h-0.7V60.5z"/>
			<path class="st3" d="M41.5,59.8h2.4v0.6h-1.7v0.6h1.5v0.6h-1.5v0.7h1.7V63h-2.4V59.8z"/>
			<path class="st3" d="M44.3,59.8h2.4v0.6H45v0.6h1.5v0.6H45v0.7h1.7V63h-2.4V59.8z"/>
			<path class="st3" d="M46.9,62.5l0.4-0.5c0.3,0.2,0.6,0.4,0.9,0.4c0.3,0,0.5-0.1,0.5-0.3v0c0-0.2-0.1-0.3-0.6-0.4
				c-0.6-0.2-1.1-0.3-1.1-1v0c0-0.6,0.5-1,1.1-1c0.5,0,0.9,0.1,1.2,0.4L49,60.7c-0.3-0.2-0.6-0.3-0.8-0.3c-0.3,0-0.4,0.1-0.4,0.3v0
				c0,0.2,0.1,0.3,0.7,0.4c0.6,0.2,1,0.4,1,1v0c0,0.6-0.5,1-1.2,1C47.8,63,47.3,62.9,46.9,62.5z"/>
		</g>
	</g>
</g>
</svg>
