<?xml version="1.0" encoding="utf-8"?>
<!-- Generator: Adobe Illustrator 21.1.0, SVG Export Plug-In . SVG Version: 6.00 Build 0)  -->
<svg version="1.1" id="Layer_1" xmlns="http://www.w3.org/2000/svg" xmlns:xlink="http://www.w3.org/1999/xlink" x="0px" y="0px"
	 viewBox="0 0 49.6 60" style="enable-background:new 0 0 49.6 60;" xml:space="preserve">
<style type="text/css">
	.st0{fill:none;stroke:#414042;stroke-linecap:round;stroke-linejoin:round;stroke-miterlimit:10;}
	.st1{fill:#FFFFFF;stroke:#414042;stroke-linecap:round;stroke-linejoin:round;stroke-miterlimit:10;}
	.st2{fill:#F1F2F2;stroke:#414042;stroke-linecap:round;stroke-linejoin:round;stroke-miterlimit:10;}
</style>
<g>
	<line class="st0" x1="11.5" y1="49.5" x2="38.4" y2="49.5"/>
	<path class="st1" d="M41.5,2.2H3.3v51.6c0,2.3,1.9,4.1,4.1,4.1l0,0c2.3,0,4.1-1.9,4.1-4.1v-4.1h30V2.2z"/>
	<line class="st0" x1="9.4" y1="10.4" x2="36.2" y2="10.4"/>
	<line class="st0" x1="9.4" y1="14.6" x2="36.2" y2="14.6"/>
	<line class="st0" x1="9.4" y1="18.7" x2="36.2" y2="18.7"/>
	<line class="st0" x1="9.4" y1="22.7" x2="36.2" y2="22.7"/>
	<line class="st0" x1="9.4" y1="26.9" x2="36.2" y2="26.9"/>
	<line class="st0" x1="9.4" y1="31" x2="28" y2="31"/>
	<line class="st0" x1="9.4" y1="35" x2="26" y2="35"/>
	<path class="st2" d="M7.4,57.8c2.3,0,4.1-1.9,4.1-4.1v-4.1h36v4.1c0,2.3-1.9,4.1-4.1,4.1H7.4z"/>
</g>
</svg>
